<svg width="32" height="32" viewBox="0 0 32 32" fill="none" xmlns="http://www.w3.org/2000/svg">
<g clip-path="url(#clip0_2_506)">
<path d="M18.6294 7.59288C16.1308 11.4782 12.673 14.4427 11.0365 15.704C7.05609 18.7751 0.433872 22.3813 0.888983 26.8C1.22232 30.0373 3.30143 31.8391 8.1272 31.496C12.7352 31.1689 17.9565 27.1991 22.1388 22.1804C26.7583 16.6373 29.4232 12.7947 30.4543 9.24621C31.3201 6.26399 31.7592 2.56621 29.3708 1.22221C27.2979 0.0559874 22.9601 0.857765 18.6294 7.59288Z" fill="#5C913B"/>
<path d="M16.193 28.1209C16.5067 28.1209 16.761 27.8666 16.761 27.5529C16.761 27.2392 16.5067 26.9849 16.193 26.9849C15.8793 26.9849 15.625 27.2392 15.625 27.5529C15.625 27.8666 15.8793 28.1209 16.193 28.1209Z" fill="#5C913B"/>
<path d="M19.0372 25.4347C19.3509 25.4347 19.6052 25.1804 19.6052 24.8667C19.6052 24.553 19.3509 24.2987 19.0372 24.2987C18.7235 24.2987 18.4692 24.553 18.4692 24.8667C18.4692 25.1804 18.7235 25.4347 19.0372 25.4347Z" fill="#5C913B"/>
<path d="M18.6552 26.0507C18.9689 26.0507 19.2232 25.7964 19.2232 25.4827C19.2232 25.169 18.9689 24.9147 18.6552 24.9147C18.3415 24.9147 18.0872 25.169 18.0872 25.4827C18.0872 25.7964 18.3415 26.0507 18.6552 26.0507Z" fill="#5C913B"/>
<path d="M21.296 23.1493C21.6097 23.1493 21.864 22.895 21.864 22.5813C21.864 22.2676 21.6097 22.0133 21.296 22.0133C20.9823 22.0133 20.728 22.2676 20.728 22.5813C20.728 22.895 20.9823 23.1493 21.296 23.1493Z" fill="#5C913B"/>
<path d="M26.6854 16.5102C26.9991 16.5102 27.2534 16.2559 27.2534 15.9422C27.2534 15.6285 26.9991 15.3742 26.6854 15.3742C26.3717 15.3742 26.1174 15.6285 26.1174 15.9422C26.1174 16.2559 26.3717 16.5102 26.6854 16.5102Z" fill="#5C913B"/>
<path d="M29.9628 10.1769C30.2765 10.1769 30.5308 9.92259 30.5308 9.60889C30.5308 9.2952 30.2765 9.04089 29.9628 9.04089C29.6491 9.04089 29.3948 9.2952 29.3948 9.60889C29.3948 9.92259 29.6491 10.1769 29.9628 10.1769Z" fill="#5C913B"/>
<path d="M30.6017 4.17689C30.9154 4.17689 31.1697 3.92259 31.1697 3.60889C31.1697 3.2952 30.9154 3.04089 30.6017 3.04089C30.288 3.04089 30.0337 3.2952 30.0337 3.60889C30.0337 3.92259 30.288 4.17689 30.6017 4.17689Z" fill="#5C913B"/>
<path d="M6.15476 30.3929C10.8765 30.0578 16.2268 25.9902 20.5121 20.8471C25.2454 15.1671 27.9761 11.2302 29.0321 7.59288C29.6428 5.49066 30.0463 3.04177 29.441 1.26932C29.4161 1.25421 29.3957 1.23555 29.3699 1.22132C27.297 0.0551023 22.9601 0.85688 18.6294 7.59199C16.1308 11.4782 12.673 14.4418 11.0365 15.7031C7.05609 18.7751 0.433872 22.3813 0.888983 26.8C1.03209 28.1875 1.49876 29.3084 2.36098 30.1129C3.37965 30.4 4.63298 30.5013 6.15476 30.3929Z" fill="#77B255"/>
<path d="M14.664 22.8907C14.272 22.9769 13.8978 22.8649 13.5458 22.5547C13.1938 22.2453 13.0347 21.8862 13.0703 21.488C13.0738 21.4507 13.0809 21.3724 13.0054 21.3387C12.9831 21.3295 12.9586 21.3275 12.9352 21.3329C12.9118 21.3383 12.8906 21.3509 12.8747 21.3689C12.4578 21.8427 12.552 22.6089 13.0836 23.0773C13.3485 23.3111 13.6729 23.4267 13.9831 23.4267C14.2978 23.4267 14.5965 23.3076 14.8071 23.0693C14.8229 23.0514 14.8327 23.0291 14.8353 23.0054C14.8378 22.9817 14.833 22.9577 14.8214 22.9369C14.7778 22.8667 14.7014 22.8827 14.664 22.8907ZM22.5787 15.6533C22.1796 15.6364 21.8445 15.4302 21.584 15.04C21.3236 14.6489 21.2631 14.2604 21.4018 13.8862C21.4151 13.8507 21.4427 13.7778 21.3769 13.7253C21.3576 13.7114 21.3346 13.7036 21.3108 13.703C21.287 13.7023 21.2636 13.7089 21.2436 13.7218C21.1151 13.8088 21.0069 13.9225 20.9265 14.0552C20.8461 14.1879 20.7954 14.3365 20.7778 14.4907C20.7351 14.8098 20.816 15.1422 21.0045 15.4267C21.2658 15.8187 21.6836 16.0373 22.088 16.0373C22.2925 16.0373 22.4951 15.9822 22.672 15.864C22.6915 15.8502 22.7065 15.8309 22.7149 15.8086C22.7233 15.7862 22.7248 15.7619 22.7191 15.7387C22.6943 15.6587 22.616 15.6551 22.5787 15.6533ZM17.6436 16.5244H17.6454C17.8498 16.5244 18.0347 16.4436 18.1618 16.2996C18.1777 16.2817 18.1877 16.2594 18.1904 16.2357C18.1931 16.212 18.1884 16.188 18.1769 16.1671C18.1529 16.1253 18.0845 16.1084 18.0356 16.1173C17.8249 16.1653 17.6143 16.1022 17.4196 15.9307C17.2231 15.7591 17.1351 15.56 17.1556 15.3422C17.16 15.2942 17.1343 15.2276 17.0898 15.2089C17.0677 15.1996 17.0433 15.1976 17.02 15.203C16.9967 15.2084 16.9757 15.2211 16.96 15.2391C16.6987 15.536 16.7556 16.016 17.0871 16.3076C17.2445 16.4462 17.4427 16.5236 17.6436 16.5244ZM25.5849 10.0693C25.3885 9.89778 25.3005 9.69867 25.3209 9.48089C25.3254 9.43289 25.2996 9.36622 25.2551 9.34756C25.2331 9.33831 25.2087 9.33625 25.1854 9.34168C25.1621 9.34711 25.1411 9.35974 25.1254 9.37778C24.864 9.67467 24.9209 10.1547 25.2525 10.4462C25.4059 10.5837 25.6038 10.6611 25.8098 10.664H25.8116C26.016 10.664 26.2009 10.5831 26.328 10.4391C26.3439 10.4213 26.3539 10.399 26.3566 10.3753C26.3593 10.3516 26.3546 10.3276 26.3431 10.3067C26.3191 10.2658 26.2507 10.2471 26.2018 10.2569C25.9903 10.304 25.7805 10.2418 25.5849 10.0693ZM21.7609 10.2729H21.7627C21.9671 10.2729 22.152 10.1929 22.28 10.0471C22.2956 10.0292 22.3052 10.007 22.3076 9.98345C22.31 9.95989 22.305 9.93618 22.2934 9.91556C22.2685 9.87289 22.1974 9.85689 22.1529 9.86667C21.9351 9.91467 21.7307 9.85067 21.5369 9.68C21.3405 9.50756 21.2525 9.30933 21.2729 9.09156C21.2774 9.04355 21.2516 8.97689 21.2071 8.95822C21.1852 8.94887 21.1608 8.94668 21.1375 8.95194C21.1142 8.95721 21.0932 8.96967 21.0774 8.98756C20.816 9.28444 20.8729 9.76444 21.2045 10.056C21.3574 10.1935 21.5552 10.2706 21.7609 10.2729ZM27.264 4.33867C27.0454 4.38755 26.8418 4.32267 26.648 4.152C26.4516 3.97955 26.3636 3.78133 26.384 3.56355C26.3885 3.51555 26.3627 3.44889 26.3183 3.43022C26.2963 3.42074 26.2719 3.41847 26.2486 3.42374C26.2253 3.42901 26.2042 3.44155 26.1885 3.45955C25.9271 3.75644 25.984 4.23644 26.3156 4.528C26.4689 4.66558 26.667 4.74267 26.8729 4.74489H26.8747C27.0791 4.74489 27.264 4.66489 27.392 4.51911C27.4076 4.50124 27.4172 4.479 27.4196 4.45545C27.422 4.43189 27.417 4.40818 27.4054 4.38755C27.3805 4.34489 27.3094 4.32889 27.264 4.33867ZM5.17337 25.0738C5.02685 24.8894 4.94037 24.6645 4.92559 24.4294C4.91081 24.1944 4.96843 23.9604 5.0907 23.7591C5.10309 23.7379 5.10823 23.7133 5.10534 23.6889C5.10245 23.6645 5.0917 23.6417 5.0747 23.624C5.05754 23.6062 5.03489 23.5946 5.01038 23.5913C4.98587 23.5879 4.96094 23.5928 4.93959 23.6053C4.88181 23.6391 4.82403 23.6729 4.77159 23.7156C4.49781 23.9351 4.32625 24.2471 4.28803 24.5956C4.24981 24.944 4.34937 25.2862 4.56803 25.5591C4.67554 25.6938 4.80858 25.8059 4.9595 25.889C5.11043 25.9722 5.27628 26.0247 5.44755 26.0436C5.61882 26.0625 5.79214 26.0474 5.95757 25.9992C6.123 25.951 6.27729 25.8706 6.41159 25.7627C6.46314 25.7209 6.50581 25.6747 6.55559 25.6213C6.5723 25.6033 6.58251 25.5802 6.5846 25.5558C6.5867 25.5313 6.58055 25.5068 6.56714 25.4862C6.55357 25.4656 6.53361 25.45 6.51034 25.4418C6.48706 25.4337 6.46174 25.4333 6.43825 25.4409C6.21512 25.5158 5.97443 25.5208 5.74839 25.4552C5.52234 25.3896 5.32172 25.2565 5.17337 25.0738ZM13.8151 18.5209C14.1031 18.5209 14.3929 18.4276 14.6347 18.2338C14.6863 18.192 14.7289 18.1458 14.7787 18.0924C14.7954 18.0744 14.8056 18.0514 14.8077 18.0269C14.8098 18.0024 14.8037 17.9779 14.7903 17.9573C14.7767 17.9367 14.7567 17.9211 14.7334 17.913C14.7102 17.9048 14.6849 17.9044 14.6614 17.912C14.4383 17.9876 14.1975 17.9931 13.9712 17.9278C13.7449 17.8625 13.5441 17.7295 13.3956 17.5467C13.2491 17.3623 13.1626 17.1374 13.1478 16.9023C13.133 16.6673 13.1907 16.4333 13.3129 16.232C13.3253 16.2108 13.3304 16.1861 13.3276 16.1618C13.3247 16.1374 13.3139 16.1146 13.2969 16.0969C13.2796 16.0793 13.257 16.068 13.2325 16.0646C13.2081 16.0612 13.1832 16.066 13.1618 16.0782C13.104 16.112 13.0463 16.1458 12.9938 16.1884C12.72 16.408 12.5485 16.72 12.5103 17.0684C12.472 17.4169 12.5716 17.7591 12.7903 18.032C13.0498 18.3529 13.4303 18.5209 13.8151 18.5209ZM22.368 5.93511C22.2215 5.75071 22.135 5.52582 22.1203 5.29076C22.1055 5.0557 22.1631 4.82175 22.2854 4.62044C22.2978 4.59925 22.3029 4.57459 22.3 4.55021C22.2971 4.52583 22.2864 4.50305 22.2694 4.48533C22.2521 4.46765 22.2295 4.45621 22.205 4.45283C22.1805 4.44945 22.1556 4.45432 22.1343 4.46667C22.0765 4.50044 22.0187 4.53422 21.9663 4.57689C21.6925 4.79644 21.5209 5.10844 21.4827 5.45689C21.4445 5.80533 21.544 6.14755 21.7627 6.42044C21.8702 6.5551 22.0032 6.66721 22.1542 6.75035C22.3051 6.83349 22.471 6.88602 22.6422 6.90493C22.8135 6.92384 22.9868 6.90876 23.1522 6.86055C23.3177 6.81235 23.472 6.73196 23.6063 6.624C23.6578 6.58222 23.7005 6.536 23.7503 6.48267C23.767 6.46465 23.7772 6.44158 23.7793 6.4171C23.7814 6.39262 23.7752 6.36814 23.7618 6.34755C23.7482 6.32695 23.7283 6.31136 23.705 6.30318C23.6817 6.29499 23.6564 6.29465 23.6329 6.30222C23.4098 6.37713 23.1691 6.38212 22.9431 6.31651C22.717 6.25091 22.5164 6.11784 22.368 5.93511ZM11.1636 25.8276C11.0338 25.9371 10.8735 26.0041 10.7044 26.0197C10.5353 26.0353 10.3654 25.9986 10.2178 25.9147C10.0707 25.8293 9.9534 25.7008 9.8817 25.5466C9.81001 25.3924 9.78739 25.2199 9.81692 25.0524C9.82036 25.033 9.81714 25.0129 9.80779 24.9955C9.79844 24.9781 9.78349 24.9643 9.76537 24.9564C9.74737 24.9484 9.72722 24.9466 9.70807 24.9512C9.68892 24.9559 9.67187 24.9668 9.65959 24.9822C9.62836 25.0204 9.59956 25.0605 9.57337 25.1022C9.50969 25.2117 9.46847 25.3328 9.45214 25.4584C9.43581 25.584 9.44469 25.7116 9.47825 25.8338C9.54492 26.0827 9.70581 26.2898 9.92892 26.4178C10.0384 26.4812 10.1593 26.5223 10.2847 26.5386C10.4101 26.5549 10.5376 26.5462 10.6596 26.5129C10.9076 26.4462 11.1156 26.2862 11.2436 26.0622C11.2685 26.0187 11.2871 25.9724 11.304 25.9271C11.3108 25.9088 11.3113 25.8888 11.3055 25.8701C11.2997 25.8515 11.2879 25.8353 11.272 25.824C11.2563 25.8119 11.237 25.8057 11.2172 25.8063C11.1974 25.807 11.1784 25.8145 11.1636 25.8276ZM8.6427 20.656C8.60319 20.4905 8.61552 20.3169 8.67801 20.1587C8.7405 20.0005 8.85013 19.8654 8.99203 19.7716C9.00816 19.7604 9.02017 19.7443 9.02619 19.7257C9.0322 19.707 9.03189 19.6869 9.0253 19.6685C9.01872 19.65 9.00622 19.6343 8.98975 19.6237C8.97329 19.613 8.95378 19.6082 8.93425 19.6098C8.88492 19.6128 8.83588 19.6197 8.78759 19.6302C8.53781 19.6907 8.32537 19.8453 8.19203 20.0649C8.12572 20.1726 8.08137 20.2924 8.06152 20.4174C8.04167 20.5424 8.04672 20.67 8.07637 20.793C8.10603 20.916 8.15971 21.0319 8.23432 21.1341C8.30894 21.2363 8.40301 21.3227 8.51114 21.3884C8.61884 21.4545 8.7385 21.4986 8.86327 21.5182C8.98804 21.5379 9.11547 21.5328 9.23825 21.5031C9.28666 21.4908 9.33393 21.4745 9.37959 21.4542C9.39778 21.4467 9.41297 21.4334 9.42278 21.4164C9.43259 21.3993 9.43647 21.3795 9.43381 21.36C9.4312 21.3405 9.42219 21.3224 9.4082 21.3086C9.3942 21.2947 9.37601 21.2859 9.35648 21.2836C9.18757 21.2646 9.02855 21.1943 8.9009 21.082C8.77326 20.9698 8.68313 20.8211 8.6427 20.656ZM19.4889 12.104C19.3765 12.2313 19.228 12.3212 19.0631 12.3619C18.8983 12.4026 18.7249 12.392 18.5663 12.3316C18.4083 12.2686 18.2733 12.159 18.1792 12.0173C18.0852 11.8757 18.0366 11.7087 18.04 11.5387C18.0406 11.5191 18.0346 11.4999 18.023 11.4841C18.0114 11.4683 17.9949 11.4569 17.976 11.4516C17.9572 11.4456 17.937 11.4463 17.9187 11.4536C17.9004 11.4609 17.8851 11.4743 17.8756 11.4916C17.8495 11.5337 17.8272 11.578 17.8089 11.624C17.763 11.7419 17.7408 11.8677 17.7436 11.9942C17.7463 12.1206 17.7739 12.2453 17.8249 12.3611C17.8758 12.4769 17.949 12.5816 18.0404 12.6691C18.1318 12.7566 18.2395 12.8252 18.3574 12.8711C18.4753 12.917 18.601 12.9392 18.7275 12.9365C18.854 12.9337 18.9787 12.9061 19.0945 12.8552C19.2103 12.8042 19.315 12.731 19.4025 12.6396C19.49 12.5483 19.5586 12.4406 19.6045 12.3227C19.6223 12.2756 19.6329 12.2284 19.6436 12.1804C19.6479 12.1611 19.6455 12.1409 19.637 12.123C19.6285 12.1051 19.6142 12.0906 19.5965 12.0818C19.5785 12.0736 19.5584 12.0714 19.5391 12.0754C19.5198 12.0794 19.5022 12.0894 19.4889 12.104ZM18.4667 20.1031C18.3508 20.2272 18.1997 20.313 18.0337 20.3489C17.8677 20.3848 17.6947 20.3691 17.5378 20.304C17.3817 20.2369 17.2499 20.1235 17.1601 19.9792C17.0703 19.8349 17.0268 19.6666 17.0356 19.4969C17.0365 19.4773 17.0309 19.4579 17.0196 19.4418C17.0084 19.4258 16.9921 19.4139 16.9734 19.408C16.9544 19.4022 16.934 19.4029 16.9155 19.41C16.897 19.417 16.8814 19.4301 16.8711 19.4471C16.8443 19.4878 16.8208 19.5306 16.8009 19.5751C16.7103 19.8085 16.7142 20.0681 16.8116 20.2987C16.9091 20.5294 17.0925 20.713 17.323 20.8108C17.5536 20.9086 17.8131 20.9127 18.0466 20.8225C18.2802 20.7322 18.4694 20.5545 18.5743 20.3271C18.5929 20.2853 18.6036 20.2418 18.6187 20.1858C18.6237 20.1666 18.6221 20.1463 18.6142 20.1281C18.6063 20.1099 18.5926 20.0948 18.5751 20.0853C18.5575 20.0763 18.5375 20.0732 18.518 20.0764C18.4985 20.0796 18.4805 20.0889 18.4667 20.1031Z" fill="#5C913B"/>
<path d="M22.0836 18.8613C22.3291 18.8613 22.528 18.6623 22.528 18.4169C22.528 18.1714 22.3291 17.9724 22.0836 17.9724C21.8381 17.9724 21.6392 18.1714 21.6392 18.4169C21.6392 18.6623 21.8381 18.8613 22.0836 18.8613Z" fill="#77B255"/>
<path d="M27.4444 11.3058C27.6899 11.3058 27.8889 11.1068 27.8889 10.8613C27.8889 10.6159 27.6899 10.4169 27.4444 10.4169C27.199 10.4169 27 10.6159 27 10.8613C27 11.1068 27.199 11.3058 27.4444 11.3058Z" fill="#77B255"/>
<path d="M29.0275 6.86133C29.2729 6.86133 29.4719 6.66235 29.4719 6.41689C29.4719 6.17143 29.2729 5.97244 29.0275 5.97244C28.782 5.97244 28.583 6.17143 28.583 6.41689C28.583 6.66235 28.782 6.86133 29.0275 6.86133Z" fill="#77B255"/>
<path d="M24.8888 15.3333C25.1342 15.3333 25.3332 15.1344 25.3332 14.8889C25.3332 14.6434 25.1342 14.4445 24.8888 14.4445C24.6433 14.4445 24.4443 14.6434 24.4443 14.8889C24.4443 15.1344 24.6433 15.3333 24.8888 15.3333Z" fill="#77B255"/>
<path d="M15.9449 25.6391C16.1904 25.6391 16.3894 25.4401 16.3894 25.1947C16.3894 24.9492 16.1904 24.7502 15.9449 24.7502C15.6995 24.7502 15.5005 24.9492 15.5005 25.1947C15.5005 25.4401 15.6995 25.6391 15.9449 25.6391Z" fill="#77B255"/>
<path d="M18.361 23.368C18.7483 23.368 19.0623 23.054 19.0623 22.6667C19.0623 22.2793 18.7483 21.9653 18.361 21.9653C17.9737 21.9653 17.6597 22.2793 17.6597 22.6667C17.6597 23.054 17.9737 23.368 18.361 23.368Z" fill="#77B255"/>
<path d="M9.83287 29.7227C10.0783 29.7227 10.2773 29.5237 10.2773 29.2782C10.2773 29.0328 10.0783 28.8338 9.83287 28.8338C9.58741 28.8338 9.38843 29.0328 9.38843 29.2782C9.38843 29.5237 9.58741 29.7227 9.83287 29.7227Z" fill="#77B255"/>
<path d="M22.9164 18.1947C23.1618 18.1947 23.3608 17.9957 23.3608 17.7502C23.3608 17.5048 23.1618 17.3058 22.9164 17.3058C22.6709 17.3058 22.4719 17.5048 22.4719 17.7502C22.4719 17.9957 22.6709 18.1947 22.9164 18.1947Z" fill="#77B255"/>
<path d="M10.0418 18.8889C10.7399 18.8889 11.3058 18.323 11.3058 17.6249C11.3058 16.9268 10.7399 16.3609 10.0418 16.3609C9.34374 16.3609 8.77783 16.9268 8.77783 17.6249C8.77783 18.323 9.34374 18.8889 10.0418 18.8889Z" fill="#77B255"/>
<path d="M5.06496 21.6311C5.54606 21.6311 5.93607 21.2411 5.93607 20.76C5.93607 20.2789 5.54606 19.8889 5.06496 19.8889C4.58386 19.8889 4.19385 20.2789 4.19385 20.76C4.19385 21.2411 4.58386 21.6311 5.06496 21.6311Z" fill="#77B255"/>
<path d="M23.5093 3.82578C23.9904 3.82578 24.3804 3.43577 24.3804 2.95467C24.3804 2.47357 23.9904 2.08356 23.5093 2.08356C23.0282 2.08356 22.6382 2.47357 22.6382 2.95467C22.6382 3.43577 23.0282 3.82578 23.5093 3.82578Z" fill="#77B255"/>
<path d="M1.73163 24.8213C2.07233 24.8213 2.34852 24.5451 2.34852 24.2044C2.34852 23.8637 2.07233 23.5876 1.73163 23.5876C1.39094 23.5876 1.11475 23.8637 1.11475 24.2044C1.11475 24.5451 1.39094 24.8213 1.73163 24.8213Z" fill="#77B255"/>
<path d="M2.20454 24.1831C2.54523 24.1831 2.82142 23.9069 2.82142 23.5662C2.82142 23.2255 2.54523 22.9493 2.20454 22.9493C1.86384 22.9493 1.58765 23.2255 1.58765 23.5662C1.58765 23.9069 1.86384 24.1831 2.20454 24.1831Z" fill="#77B255"/>
<path d="M1.64881 28.6071C2.07051 28.6071 2.41236 28.2652 2.41236 27.8435C2.41236 27.4218 2.07051 27.08 1.64881 27.08C1.22711 27.08 0.885254 27.4218 0.885254 27.8435C0.885254 28.2652 1.22711 28.6071 1.64881 28.6071Z" fill="#77B255"/>
<path d="M12.0079 15.8018C12.3216 15.8018 12.5759 15.5475 12.5759 15.2338C12.5759 14.9201 12.3216 14.6658 12.0079 14.6658C11.6942 14.6658 11.4399 14.9201 11.4399 15.2338C11.4399 15.5475 11.6942 15.8018 12.0079 15.8018Z" fill="#77B255"/>
<path d="M24.4249 2.49599C24.7386 2.49599 24.9929 2.24168 24.9929 1.92799C24.9929 1.61429 24.7386 1.35999 24.4249 1.35999C24.1112 1.35999 23.8569 1.61429 23.8569 1.92799C23.8569 2.24168 24.1112 2.49599 24.4249 2.49599Z" fill="#77B255"/>
<path d="M27.953 1.71821C28.2667 1.71821 28.521 1.46391 28.521 1.15021C28.521 0.836517 28.2667 0.582214 27.953 0.582214C27.6393 0.582214 27.385 0.836517 27.385 1.15021C27.385 1.46391 27.6393 1.71821 27.953 1.71821Z" fill="#77B255"/>
<path d="M14.8693 13.1911C15.183 13.1911 15.4373 12.9368 15.4373 12.6231C15.4373 12.3094 15.183 12.0551 14.8693 12.0551C14.5556 12.0551 14.3013 12.3094 14.3013 12.6231C14.3013 12.9368 14.5556 13.1911 14.8693 13.1911Z" fill="#77B255"/>
<path d="M17.5084 10.3022C17.8221 10.3022 18.0764 10.0479 18.0764 9.73423C18.0764 9.42053 17.8221 9.16623 17.5084 9.16623C17.1947 9.16623 16.9404 9.42053 16.9404 9.73423C16.9404 10.0479 17.1947 10.3022 17.5084 10.3022Z" fill="#77B255"/>
<path d="M16.9999 10.8738C17.3136 10.8738 17.5679 10.6195 17.5679 10.3058C17.5679 9.9921 17.3136 9.73779 16.9999 9.73779C16.6862 9.73779 16.4319 9.9921 16.4319 10.3058C16.4319 10.6195 16.6862 10.8738 16.9999 10.8738Z" fill="#77B255"/>
<path d="M19.5636 7.46846C19.8773 7.46846 20.1316 7.21416 20.1316 6.90046C20.1316 6.58676 19.8773 6.33246 19.5636 6.33246C19.2499 6.33246 18.9956 6.58676 18.9956 6.90046C18.9956 7.21416 19.2499 7.46846 19.5636 7.46846Z" fill="#77B255"/>
</g>
<defs>
<clipPath id="clip0_2_506">
<rect width="32" height="32" fill="white"/>
</clipPath>
</defs>
</svg>
