<svg width="32" height="32" viewBox="0 0 32 32" fill="none" xmlns="http://www.w3.org/2000/svg">
<path d="M15.8001 24.7425L11.7676 27.4425C11.7676 27.4425 12.7151 27.93 13.1501 28.7325C13.6751 29.7 13.3526 30.3625 13.5801 30.43C13.7626 30.485 14.2726 30.325 14.4176 30.045C14.5976 29.695 14.5876 29.455 14.5876 29.455C14.5876 29.455 14.8526 29.625 15.2551 30.305C15.5201 30.755 15.6626 31.2225 15.9351 31.2225C16.2976 31.2225 16.3651 30.7575 16.3876 30.4875C16.4101 30.2175 16.4301 29.715 16.4301 29.715C16.4301 29.715 16.9401 30.6375 17.1426 30.84C17.3451 31.0425 17.6901 31.1325 17.8376 30.8375C17.9851 30.5425 17.9251 30.15 18.2126 29.42C18.6251 28.375 19.9201 27.1125 19.9201 27.1125L15.8001 24.7425Z" fill="#BB9176"/>
<path d="M6.8499 24.155C6.8499 24.155 7.6724 26.0425 9.1824 26.7825C11.2174 27.78 12.9199 27.44 12.9199 27.44C12.9199 27.44 14.2124 28.4825 16.3399 28.4825C18.4699 28.4825 20.4174 26.7375 20.4174 26.7375C20.4174 26.7375 21.7799 27.2675 23.7699 26.1925C25.4924 25.2625 25.6274 23.8825 25.6274 23.8825C25.6274 23.8825 27.3049 23.2025 27.8699 21.4575C28.4374 19.7125 28.4449 17.785 27.2799 15.975C26.0574 14.0725 22.2949 11.67 21.6849 11.195C21.0724 10.72 19.0124 9.40499 18.5574 8.36249C18.1024 7.31999 17.7574 5.07249 17.7199 3.93749C17.6599 2.105 17.8099 1.20249 17.3099 0.929995C16.8124 0.657495 15.8599 1.20249 15.3624 1.42749C14.8649 1.65249 13.7074 2.23 13.6299 2.47249C13.5524 2.71499 13.7999 3.98749 13.6399 5.54999C13.4824 7.11249 13.0674 8.62749 12.0324 9.60499C9.6299 11.87 6.8224 12.98 5.3024 15.1325C3.7824 17.285 3.3074 20.1175 4.4649 21.9975C5.6249 23.8825 6.8499 24.155 6.8499 24.155Z" fill="url(#paint0_radial_2_639)"/>
<path d="M6.8499 24.155C6.8499 24.155 7.6724 26.0425 9.1824 26.7825C11.2174 27.78 12.9199 27.44 12.9199 27.44C12.9199 27.44 14.2124 28.4825 16.3399 28.4825C18.4699 28.4825 20.4174 26.7375 20.4174 26.7375C20.4174 26.7375 21.7799 27.2675 23.7699 26.1925C25.4924 25.2625 25.6274 23.8825 25.6274 23.8825C25.6274 23.8825 27.3049 23.2025 27.8699 21.4575C28.4374 19.7125 28.4449 17.785 27.2799 15.975C26.0574 14.0725 23.7674 12.585 21.6849 11.195C21.0399 10.765 19.0124 9.40499 18.5574 8.36249C18.1024 7.31999 17.7399 5.33749 17.6899 4.20499C17.6274 2.75749 13.7999 3.98999 13.6399 5.55249C13.4824 7.11499 13.0674 8.62999 12.0324 9.60749C9.6299 11.8725 6.8224 12.9825 5.3024 15.135C3.7824 17.2875 3.3074 20.12 4.4649 22C5.6249 23.8825 6.8499 24.155 6.8499 24.155Z" fill="url(#paint1_radial_2_639)"/>
<path d="M10.0875 16.03C10.0875 16.03 7.13997 17.0075 6.06247 19.58C5.23997 21.5425 5.65747 23.4325 5.65747 23.4325C5.65747 23.4325 6.01747 23.8325 6.29497 23.9525C6.57497 24.0725 6.84747 24.155 6.84747 24.155C6.84747 24.155 7.03247 24.5725 7.19247 24.81C7.35247 25.0475 7.75247 25.5675 7.75247 25.5675C7.75247 25.5675 7.20747 24.115 7.73497 21.52C8.46997 17.9125 10.0875 16.03 10.0875 16.03Z" fill="url(#paint2_radial_2_639)"/>
<path d="M21.9026 14.1125C21.9026 14.1125 24.3576 16.9675 25.0701 18.91C26.3026 22.2725 25.6301 23.88 25.6301 23.88C25.6301 23.88 26.4501 23.65 27.0501 22.9325C27.6501 22.215 27.8751 21.195 27.4726 19.275C27.1001 17.505 25.2576 16.1375 25.2576 16.1375L25.6726 17.76C25.6726 17.76 25.2301 16.9225 24.2726 15.9025C22.9876 14.535 21.9026 14.1125 21.9026 14.1125Z" fill="url(#paint3_radial_2_639)"/>
<path d="M11.0775 14.7225C11.0775 14.7225 13.0175 11.43 13.6625 9.825C14.3425 8.1325 14.7725 7.45 14.6975 4.8675C14.6575 3.5825 14.325 1.9475 14.325 1.9475L15.0575 1.575C15.0575 1.575 15.86 3.595 16.165 5.9975C16.47 8.4 16.58 9.9825 15.395 13.535C14.41 16.4875 13.265 18.1275 12.505 20.045C11.745 21.9625 10.8025 27.0225 16.035 27.705C20.69 28.3125 21.13 24.135 19.775 21.0475C18.7425 18.69 17.3725 15.785 17.3425 13.99C17.3125 12.195 17.435 11.465 17.435 11.465C17.435 11.465 18.955 14.05 19.655 15.42C20.355 16.79 21.945 19.5425 21.9125 22.1575C21.8825 24.69 21.1025 28.42 16.0525 28.5825C11.3075 28.7375 8.94753 23.6 10.65 19.4675C12.4625 15.0675 13.4425 14.0375 13.98 12.6875C14.675 10.9425 14.665 10.0125 14.665 10.0125C14.665 10.0125 13.6025 11.6175 12.8125 12.6825C12.2875 13.3875 11.0775 14.7225 11.0775 14.7225Z" fill="url(#paint4_radial_2_639)"/>
<path d="M16.8425 8.895C16.8425 8.895 17.2125 10.075 17.285 11.995C17.36 13.915 17.6375 15.1275 18.0625 17.0175C18.3975 18.505 20.31 20.995 20.4 24.0625C20.46 26.11 19.4775 27.8425 16.4375 27.72C11.53 27.5225 11.845 23.1225 11.99 21.7225C12.1475 20.2375 14.8125 15.65 15.55 13.175C16.0325 11.56 16.8425 8.895 16.8425 8.895Z" fill="url(#paint5_radial_2_639)"/>
<path d="M19.7776 21.05C21.6101 25.2375 19.0126 27.8125 19.0126 27.8125C21.4051 26.6075 21.8926 24.085 21.9151 22.16C21.9451 19.545 20.3551 16.79 19.6576 15.4225C18.9576 14.0525 17.4376 11.4675 17.4376 11.4675C17.4376 11.4675 17.3151 12.1975 17.3451 13.9925C17.3751 15.7875 18.7376 18.6975 19.7776 21.05Z" fill="url(#paint6_radial_2_639)"/>
<defs>
<radialGradient id="paint0_radial_2_639" cx="0" cy="0" r="1" gradientUnits="userSpaceOnUse" gradientTransform="translate(16.1529 21.8435) scale(28.7545)">
<stop offset="0.181" stop-color="#EDDFDF"/>
<stop offset="0.335" stop-color="#E7CED1"/>
<stop offset="0.519" stop-color="#E3C1C6"/>
<stop offset="0.69" stop-color="#E1BDC2"/>
</radialGradient>
<radialGradient id="paint1_radial_2_639" cx="0" cy="0" r="1" gradientUnits="userSpaceOnUse" gradientTransform="translate(16.1406 16.592) rotate(-90.5701) scale(6.51257 12.8343)">
<stop stop-color="#F8F6F7" stop-opacity="0.7"/>
<stop offset="0.824" stop-color="#F8F6F7" stop-opacity="0"/>
</radialGradient>
<radialGradient id="paint2_radial_2_639" cx="0" cy="0" r="1" gradientUnits="userSpaceOnUse" gradientTransform="translate(6.48297 24.6492) scale(8.95425)">
<stop offset="0.181" stop-color="#C8A9B3"/>
<stop offset="0.488" stop-color="#D2B2BA"/>
<stop offset="0.69" stop-color="#DBBAC0"/>
</radialGradient>
<radialGradient id="paint3_radial_2_639" cx="0" cy="0" r="1" gradientUnits="userSpaceOnUse" gradientTransform="translate(26.9343 22.9878) scale(9.6105)">
<stop offset="0.126" stop-color="#B494A7"/>
<stop offset="0.283" stop-color="#BB9BAC"/>
<stop offset="0.6" stop-color="#C4A5B2"/>
</radialGradient>
<radialGradient id="paint4_radial_2_639" cx="0" cy="0" r="1" gradientUnits="userSpaceOnUse" gradientTransform="translate(16.2683 1.69775) scale(27.0953)">
<stop offset="0.094" stop-color="#A385A0"/>
<stop offset="0.403" stop-color="#C0A0AD"/>
<stop offset="0.405" stop-color="#C0A0AD"/>
<stop offset="0.559" stop-color="#D5B7C0"/>
<stop offset="0.671" stop-color="#E0C3CA"/>
</radialGradient>
<radialGradient id="paint5_radial_2_639" cx="0" cy="0" r="1" gradientUnits="userSpaceOnUse" gradientTransform="translate(16.2348 21.58) scale(13.0147)">
<stop stop-color="#F8F6F7"/>
<stop offset="0.782" stop-color="#F8F6F7" stop-opacity="0"/>
</radialGradient>
<radialGradient id="paint6_radial_2_639" cx="0" cy="0" r="1" gradientUnits="userSpaceOnUse" gradientTransform="translate(19.2298 11.596) scale(15.767 15.767)">
<stop offset="0.238" stop-color="#E0C3CA"/>
<stop offset="0.357" stop-color="#D8BBC5"/>
<stop offset="0.542" stop-color="#C3A6B6"/>
<stop offset="0.753" stop-color="#A385A0"/>
<stop offset="0.819" stop-color="#A688A2" stop-opacity="0.705"/>
<stop offset="0.871" stop-color="#B092A9" stop-opacity="0.472"/>
<stop offset="0.918" stop-color="#C0A3B4" stop-opacity="0.26"/>
<stop offset="0.963" stop-color="#D7BAC4" stop-opacity="0.061"/>
<stop offset="0.976" stop-color="#E0C3CA" stop-opacity="0"/>
</radialGradient>
</defs>
</svg>
