<svg width="32" height="32" viewBox="0 0 32 32" fill="none" xmlns="http://www.w3.org/2000/svg">
<path d="M23.6596 28.8364C23.4267 28.4331 23.1172 28.0792 22.7485 27.7947C22.84 27.4204 22.7982 27.0524 22.4756 26.8142C21.6756 26.2258 14.6356 27.0151 14.1325 29.5316C13.9245 30.5724 14.6551 30.5724 15.0551 30.2507C14.9334 30.6942 14.8667 31.1493 14.9049 31.5751C14.9202 31.686 14.9775 31.7867 15.0651 31.8564C15.1526 31.9261 15.2636 31.9594 15.3751 31.9495C15.4866 31.9395 15.5899 31.8871 15.6637 31.803C15.7376 31.7189 15.7762 31.6096 15.7716 31.4978C15.7449 31.2009 15.7911 30.8809 15.8702 30.5636C16.0489 30.7236 16.2471 30.8542 16.48 30.8027C16.7574 30.7404 16.9334 30.4667 17.0489 30.1698C17.0622 30.3582 17.0898 30.4791 17.0934 30.4924C17.123 30.6028 17.195 30.6969 17.2938 30.7543C17.3925 30.8118 17.5099 30.8279 17.6205 30.7991L17.6258 30.7973C17.7356 30.7672 17.8293 30.6955 17.8871 30.5974C17.9449 30.4994 17.9621 30.3826 17.9351 30.272C17.9043 30.1064 17.8987 29.9371 17.9182 29.7698C18.3111 30.0071 18.8071 30.2222 19.2134 30.1236C19.7298 29.9973 19.9769 29.5627 20.0996 29.1342C20.4898 29.5004 20.72 29.9298 20.9511 30.4267C20.9752 30.4784 21.0092 30.525 21.0512 30.5636C21.0932 30.6022 21.1425 30.6322 21.1961 30.6518C21.2497 30.6714 21.3066 30.6802 21.3637 30.6778C21.4207 30.6754 21.4767 30.6618 21.5285 30.6378C21.5802 30.6137 21.6268 30.5797 21.6654 30.5377C21.704 30.4957 21.734 30.4464 21.7536 30.3928C21.7732 30.3392 21.7821 30.2823 21.7796 30.2252C21.7772 30.1682 21.7636 30.1122 21.7396 30.0604C21.5751 29.7058 21.3716 29.2782 21.0347 28.8622C21.3422 29.0676 21.6667 29.2116 21.8791 29.0871C22.0267 29.0009 22.2027 28.8187 22.3636 28.5956C22.6987 28.8942 22.8871 29.2364 22.8898 29.2418C22.9443 29.3433 23.0368 29.4192 23.147 29.4529C23.2573 29.4865 23.3763 29.4752 23.4782 29.4213C23.5287 29.3949 23.5733 29.3588 23.6098 29.3151C23.6462 29.2714 23.6736 29.2209 23.6904 29.1666C23.7073 29.1122 23.7132 29.0551 23.7079 28.9984C23.7026 28.9418 23.6862 28.8867 23.6596 28.8364Z" fill="#D39954"/>
<path d="M19.2961 5.61778C16.8596 4.78934 13.9823 2.83201 13.2925 0.257784C13.0499 -0.648883 12.4463 1.40445 11.6116 1.62756C10.777 1.85156 9.22764 0.375117 9.4712 1.28178C10.161 3.85601 8.64809 6.99023 6.95209 8.92534C3.77431 12.552 1.36364 16.8809 2.60542 21.5164C4.3832 28.152 11.5832 31.0685 18.9699 29.0889C26.3565 27.1093 31.1334 20.984 29.3556 14.3493C28.113 9.71378 23.8605 7.16978 19.2961 5.61778Z" fill="#EDD6A6"/>
<path d="M12.1423 28.9644C9.21253 27.1929 5.1752 24.2773 4.82942 18.9822C4.45164 13.1876 9.21697 10.0062 9.54409 6.69244C9.93875 10.6284 6.38053 13.1244 6.6872 18.1289C6.96542 22.6631 8.84631 25.9876 12.1423 28.9644Z" fill="#E2A759"/>
<path d="M17.568 29.2311C14.8152 27.512 11.4063 23.9724 10.5067 19.2729C9.2116 12.5076 11.4872 8.47733 10.6872 3.37067C12.3734 9.27644 11.6063 12.0436 12.7334 17.8916C13.4667 21.6978 15.3112 26.9698 17.568 29.2311ZM24.8196 25.568C26.4712 22.5689 28.6436 17.9893 26.2952 13.2302C23.7254 8.02311 17.8738 7.68622 15.9334 4.98044C17.5592 8.58667 22.0223 8.93333 24.2596 13.4204C26.2863 17.4862 26.1849 21.3422 24.8196 25.568Z" fill="#E2A759"/>
<path d="M20.2543 28.512C21.7787 25.6471 22.9609 20.8773 21.3903 16.3573C19.1298 9.85066 15.144 7.49866 13.2827 2.67555C14.7752 8.63377 16.8232 10.6453 18.7707 16.2738C20.0392 19.936 21.0783 25.4249 20.2543 28.512Z" fill="#E2A759"/>
</svg>
