<svg width="32" height="32" viewBox="0 0 32 32" fill="none" xmlns="http://www.w3.org/2000/svg">
<path d="M28.4225 11.295L25.6075 12.375L20.0225 24.6675L10.99 30.815C10.99 30.815 17.2075 31.33 22.04 28.0475C26.8725 24.765 29.3125 20.4925 30.1125 17.02C30.91 13.5475 30.535 12.515 30.535 12.515L28.4225 11.295Z" fill="#DC0D28"/>
<path d="M20.6325 9.0425C20.6325 9.0425 18.85 9.2775 17.91 12.42C16.97 15.5625 17.4875 18.05 15.375 20.7725C13.2625 23.495 11.34 24.5275 7.9625 23.87C3.3475 22.9725 3.645 19.595 2.2375 19.4125C1.1575 19.2725 0.500004 22.745 2.1425 25.5125C3.785 28.28 6.975 30.44 10.4475 30.7675C13.92 31.095 19.9725 29.125 23.3525 23.915C26.7325 18.705 27.155 15 27.25 12.655C27.345 10.31 24.105 9.0875 24.105 9.0875L20.6325 9.0425Z" fill="#FF5117"/>
<path d="M21.525 12.48C20.75 11.8825 19.765 12.7975 19.3775 14.24C18.99 15.6825 18.955 16.915 18.745 17.6175C18.535 18.32 17.97 19.3075 18.71 19.73C19.45 20.1525 20.1875 18.78 20.47 17.725C20.7525 16.67 20.9975 15.225 21.385 14.5225C21.7725 13.82 22.135 12.95 21.525 12.48ZM18.1925 20.6325C17.395 20.35 17.23 21.0325 17.09 21.2425C16.95 21.4525 16.69 21.97 17.1375 22.2525C17.635 22.5675 18.03 22.205 18.2625 21.8525C18.4975 21.5 18.6475 20.7925 18.1925 20.6325Z" fill="#FFCB88"/>
<path d="M21.2649 9.6525C21.8524 10.215 21.0299 10.7775 21.4524 11.1075C21.9499 11.495 23.3524 10.7075 24.5024 11.085C25.6524 11.4625 25.6049 12.8225 26.4499 12.915C27.2949 13.01 27.2699 12.21 28.4199 12.375C29.5699 12.54 30.1099 14.04 30.6724 13.8775C31.2349 13.715 30.9299 11.86 29.5699 10.57C28.4849 9.5425 27.7624 9.3275 27.6924 8.8325C27.6224 8.34 28.1374 6.065 28.3024 4.9375C28.4674 3.8125 28.4199 2.2625 27.0124 1.56C25.6049 0.854998 24.4074 1.5125 24.1724 1.9125C23.8874 2.395 23.9899 3.0725 25.1824 2.6175C26.2849 2.195 27.0349 3.205 26.8949 4.19C26.7549 5.175 26.0024 6.5825 25.5574 7.1475C25.1124 7.7125 24.8774 8.04 24.5474 8.11C24.2199 8.18 23.1399 7.9925 22.1299 8.04C20.9274 8.095 19.6674 8.6975 19.8299 9.19C19.9924 9.6825 20.8074 9.2125 21.2649 9.6525Z" fill="#98B71E"/>
</svg>
