<svg width="32" height="32" viewBox="0 0 32 32" fill="none" xmlns="http://www.w3.org/2000/svg">
<path d="M29.9424 17.345C29.9424 17.345 30.3699 14.0825 29.5924 12.6075C28.8149 11.1325 26.4149 7.875 21.4374 7.2875C18.7974 6.9775 17.0099 7.3275 15.3799 7.52C14.3474 7.6425 12.4249 7.0075 8.97241 7.7925C6.41241 8.375 2.52741 10.6275 1.26491 15.4825C0.599908 18.04 0.852408 20.8025 1.98491 23.13C4.15991 27.595 8.19741 28.6825 8.19741 28.6825L16.3124 29.3425L26.1374 25.1875L29.9424 17.345Z" fill="#FF2A23"/>
<path d="M20.5075 29.77C25.6725 28.76 30.1375 24.14 30.915 19.2475C31.6425 14.67 28.9675 11.6025 28.9675 11.6025C28.9675 11.6025 29.2725 14.045 28.7025 16.6475C28.09 19.4325 26.3175 24.075 20.7025 26.705C13.81 29.9325 6.26001 27.805 6.26001 27.805C6.26001 27.805 11.39 31.5525 20.5075 29.77Z" fill="#DC0D27"/>
<path d="M6.22991 13.19C4.85741 12.835 3.14491 13.8725 2.89741 16.91C2.66991 19.6925 4.17741 23.045 5.65491 22.645C6.90991 22.305 5.70241 19.98 6.14991 18.0725C6.60241 16.165 8.32241 13.7325 6.22991 13.19Z" fill="#FED3B0"/>
<path d="M7.96739 11.5125C7.77239 11.765 8.22489 12.875 10.5224 12.86C12.8174 12.845 13.2024 12.1525 14.2249 12.4625C15.2474 12.7725 16.0449 14.0025 17.1749 14.675C18.7549 15.615 21.0349 15.375 21.0199 14.9575C21.0049 14.5375 20.4474 14.7525 19.9674 14.165C19.4874 13.575 18.6374 12.0175 18.6374 12.0175C18.6374 12.0175 18.8749 11.2875 19.3774 11.315C20.5374 11.3775 21.8274 11.1475 22.5374 10.7025C23.3874 10.1725 23.7074 9.355 23.5524 9.1675C23.3974 8.9825 22.9149 9.4825 22.6524 9.435C22.3899 9.3875 20.6824 9.42 20.6824 9.42L18.6199 9.085C18.6199 9.085 18.9024 7.8775 19.4599 7.2575C20.0174 6.6375 20.8924 5.785 20.8749 5.6775C20.8574 5.57 20.1549 5.665 20.1549 5.665L17.9824 6.6575L16.4624 8.6575L13.5774 9.03L10.7999 7.1675C10.7999 7.1675 9.20739 5.8825 9.13489 5.9125C8.73239 6.0775 9.34489 6.69 9.80739 7.43C10.2074 8.0725 10.2899 8.395 10.8299 8.8425C11.3574 9.2775 12.2424 9.71 12.2424 9.71L11.6074 10.8575C11.6074 10.8575 9.55989 11.665 9.20239 11.665C8.84739 11.6675 8.07489 11.375 7.96739 11.5125Z" fill="#BDCF44"/>
<path d="M14.3776 10.82C15.2151 10.8825 15.8201 11.995 16.5751 12.7525C17.6776 13.855 18.5401 14.43 19.4676 14.6475C19.9326 14.755 21.0001 14.9325 21.0001 14.9325C21.0001 14.9325 21.1551 14.825 20.6276 14.53C20.1001 14.235 19.7826 13.67 19.7051 13.4075C19.6276 13.145 19.3851 12.2825 18.8751 11.5675C18.3651 10.8525 17.7851 10.55 17.9701 10.225C18.1551 9.89999 19.7551 10.45 21.2951 10.2025C23.3276 9.87749 23.6376 9.22499 23.5451 9.14749C23.4526 9.06999 22.1951 9.44249 21.5601 9.30249C20.9251 9.16249 20.3801 8.72749 19.4201 8.72749C18.7651 8.72749 18.1251 8.96499 17.9526 8.60749C17.8076 8.30749 18.3526 7.30499 18.7676 6.92749C19.7751 6.01249 20.8626 5.79499 20.8626 5.66999C20.8626 5.41249 19.0951 5.26749 17.8701 6.24499C16.6501 7.21749 16.8801 8.49499 15.2951 8.49499C14.7676 8.49499 14.5651 8.36999 14.5651 8.36999C14.5651 8.36999 13.8576 7.78749 12.9126 7.27499C11.9676 6.76249 11.2551 6.98999 10.7101 6.72749C10.1676 6.46499 9.20506 5.78499 9.11256 5.92249C9.02006 6.05999 9.83506 6.98999 10.8601 7.74999C11.8851 8.50999 13.0326 8.89749 12.7051 9.20749C12.3801 9.51749 11.8376 9.71999 11.3251 10.1075C10.8126 10.495 10.3626 11.0525 9.74256 11.255C9.12256 11.4575 8.10256 11.315 7.96256 11.485C7.82256 11.655 9.04256 12.2425 10.9501 11.8875C12.8526 11.5325 12.8576 10.7075 14.3776 10.82Z" fill="#94A61D"/>
<path d="M16.2799 1.235C15.8624 1.215 15.3349 1.545 15.3349 1.545C15.3349 1.545 14.5699 2.4775 14.2674 4.7925C14.1274 5.8625 14.2799 7.3 14.2499 8.0925C14.2199 8.8825 14.0474 9.17751 14.0949 9.58251C14.1424 9.98501 14.5649 10.44 15.5424 10.43C16.3274 10.4225 16.7324 9.815 16.7174 9.5975C16.7024 9.38 16.0299 7.1625 16.2199 5.2075C16.3974 3.39 17.0599 2.135 17.0874 1.8725C17.1024 1.73 16.9149 1.265 16.2799 1.235Z" fill="#728035"/>
</svg>
