<svg width="32" height="32" viewBox="0 0 32 32" fill="none" xmlns="http://www.w3.org/2000/svg">
<path d="M30.356 26.452L27.71 14.587C26.763 9.659 22.34 5.979 17.088 6.211C15.496 6.28 14.07 7.059 12.867 8.152C11.661 9.246 10.615 10.708 9.75899 12.287C8.05299 15.427 6.98999 19.233 6.98999 22V27.2C6.98999 29.245 8.61899 30.985 10.712 31C11.2114 31.0047 11.7067 30.909 12.1684 30.7187C12.6301 30.5283 13.0489 30.2472 13.4 29.892C13.7481 30.2434 14.1624 30.5223 14.619 30.7125C15.0756 30.9026 15.5654 31.0004 16.06 31C16.5544 30.9994 17.0438 30.9013 17.5002 30.7114C17.9567 30.5214 18.3712 30.2433 18.72 29.893C19.0682 30.2442 19.4825 30.5229 19.9391 30.7129C20.3957 30.9029 20.8854 31.0005 21.38 31C21.8744 30.9994 22.3638 30.9013 22.8202 30.7114C23.2767 30.5214 23.6912 30.2433 24.04 29.893C24.5631 30.4208 25.2313 30.7812 25.9597 30.9283C26.688 31.0755 27.4437 31.0029 28.1307 30.7196C28.8177 30.4363 29.405 29.9552 29.8179 29.3375C30.2309 28.7197 30.4509 27.9931 30.45 27.25V27.225L30.449 27.2C30.4388 26.9485 30.4077 26.6983 30.356 26.452Z" fill="#9B9B9B"/>
<path d="M9.29993 16.66L10.0799 17.05C10.7099 17.36 11.1099 18.01 11.1099 18.72V21H7.81993L3.03693 19.652C2.96622 19.4465 2.97083 19.2225 3.04993 19.02L3.33993 18.3C3.74318 17.2973 4.40401 16.4187 5.25562 15.7532C6.10723 15.0878 7.11944 14.6589 8.18993 14.51C8.63993 14.45 9.02993 14.79 9.02993 15.24V16.23C9.02993 16.41 9.13994 16.58 9.29993 16.66Z" fill="#F9C23C"/>
<path d="M3.33991 20.11C4.29991 21.08 6.17991 22 7.81991 22H11.1099V20.74L10.5999 19.64H3.03491C3.08491 19.81 3.19991 19.97 3.33991 20.11Z" fill="#FFB02E"/>
<path d="M20.7199 11.86V11.42C20.019 11.3641 19.3392 11.1541 18.7289 10.8049C18.1187 10.4557 17.5932 9.97596 17.1899 9.4C16.5799 10.15 15.6899 10.68 14.6799 10.81C14.7725 11.3787 14.737 11.9608 14.576 12.514C14.415 13.0672 14.1326 13.5775 13.7493 14.0077C13.3661 14.4379 12.8917 14.7772 12.3607 15.0007C11.8297 15.2243 11.2554 15.3265 10.6799 15.3C8.69991 15.21 7.08991 13.59 6.99991 11.61C6.96081 10.7468 7.21114 9.89524 7.71115 9.19051C8.21117 8.48578 8.93223 7.96823 9.75991 7.72C10.0899 7.62 10.3099 7.32 10.3099 6.98V6.97C10.3099 4.83 12.0399 3.1 14.1799 3.1C14.7399 3.1 15.2699 3.22 15.7499 3.43C16.5099 3.77 17.4099 3.64 18.0499 3.1C18.8916 2.3957 19.9524 2.00674 21.0499 2H21.1899C24.6399 2.08 26.2699 6.31 23.8299 8.75L20.7199 11.86ZM8.99991 23.5L7.98991 25.4C7.98991 26.28 7.27991 27 6.38991 27C5.24991 27 4.47991 25.84 4.90991 24.78L5.67991 22.94C5.91991 22.37 6.46991 22 7.08991 22H7.98991L8.99991 23.5Z" fill="#F8312F"/>
<path d="M29.38 26.67L26.73 14.79C25.88 10.33 21.88 7 17.13 7.21C12 7.43 7.98999 11.73 7.98999 16.86V27.2C7.98999 28.72 9.19999 29.99 10.72 30C11.66 30.01 12.49 29.54 13 28.82C13.2 28.54 13.61 28.54 13.8 28.82C14.3 29.53 15.12 30 16.06 30C16.99 30 17.82 29.53 18.32 28.82C18.52 28.54 18.93 28.54 19.12 28.82C19.62 29.53 20.44 30 21.38 30C22.31 30 23.14 29.53 23.64 28.82C23.84 28.54 24.25 28.54 24.44 28.82C24.94 29.53 25.76 30 26.7 30C28.22 30 29.45 28.77 29.45 27.25C29.44 27.05 29.42 26.85 29.38 26.67Z" fill="white"/>
<path d="M13.5 18C13.8978 18 14.2794 17.842 14.5607 17.5607C14.842 17.2794 15 16.8978 15 16.5C15 16.1022 14.842 15.7206 14.5607 15.4393C14.2794 15.158 13.8978 15 13.5 15C13.1022 15 12.7206 15.158 12.4393 15.4393C12.158 15.7206 12 16.1022 12 16.5C12 16.8978 12.158 17.2794 12.4393 17.5607C12.7206 17.842 13.1022 18 13.5 18Z" fill="#212121"/>
</svg>
