<svg width="32" height="32" viewBox="0 0 32 32" fill="none" xmlns="http://www.w3.org/2000/svg">
<path d="M30.2575 5.4375L1.11746 15.735C1.11746 15.735 1.00996 18.0425 1.25996 19.9575C1.50996 21.8725 1.86246 22.9025 1.86246 22.9025C1.86246 22.9025 2.81996 27.2675 8.39246 29.4325C13.965 31.5975 19.6675 29.14 21.3825 28.19C23.4425 27.05 26.1325 24.42 27.1975 23.1075C28.2625 21.795 30.3275 18.8225 30.575 16.905C30.8225 14.9875 31.0825 11.9575 31.0725 10.04C31.055 7.2 30.2575 5.4375 30.2575 5.4375Z" fill="#FEA8A6"/>
<path d="M16.0225 7.43C14.355 7.82 9.03004 8.4225 7.75254 8.7775C6.47504 9.1325 4.71504 9.8225 4.16504 10.2575C3.26504 10.97 1.10254 14.5975 1.11504 15.735C1.13504 17.7125 1.87004 20.155 2.51004 20.745C2.97504 21.175 6.58254 26.38 11.48 26.415C16.3775 26.45 27.1675 19.0675 27.6275 18.43C28.09 17.79 29.69 14.73 30.135 12.7975C30.5275 11.09 31.025 7.42 30.1825 5.1925C29.535 3.4775 28.005 1.895 26.9625 1.6875C24.9 1.28 23.725 1.68 23.405 1.7875C23.085 1.895 22.5375 5.2225 21.17 5.7275C19.1475 6.4725 16.0225 7.43 16.0225 7.43Z" fill="#FED5B6"/>
<path d="M22.2976 5.65C23.7526 4.79 23.9051 1.6575 23.9051 1.6575C23.9051 1.6575 22.7901 1.73 21.5476 2.7375C20.3051 3.745 18.8701 5.5425 18.1626 6.0575C17.4551 6.5725 16.0226 7.43 16.0226 7.43C16.0226 7.43 20.0551 6.9725 22.2976 5.65ZM23.9901 9.3125C24.7576 11.6725 27.5451 12.4175 28.3376 12.205C29.1301 11.99 29.6226 10.255 29.5576 7.7275C29.4926 5.2 28.2076 3.785 27.0076 3.8725C25.9801 3.945 24.5426 4.95 24.0076 6.485C23.6964 7.40085 23.6902 8.39287 23.9901 9.3125ZM19.2976 8.735C19.6301 9.0675 18.7201 10.0425 19.2326 11.5625C19.7476 13.0825 20.6026 13.5125 20.5401 13.9625C20.4776 14.4125 16.9201 18.91 14.4151 19.8525C11.9101 20.795 4.9576 20.48 3.6826 16.94C2.7176 14.2625 4.7551 11.9525 5.2901 11.52C6.1026 10.8625 6.9076 10.36 8.1401 10.1275C8.6101 10.04 12.1251 9.5075 14.2026 9.2925C16.2776 9.0775 18.9126 8.35 19.2976 8.735Z" fill="#DC0D28"/>
<path d="M13.3851 10.555C13.5601 11.3675 11.1776 12.1625 9.33762 13.51C7.97512 14.5075 6.93762 16.3375 5.76012 15.61C4.58262 14.8825 6.24262 12.07 6.87512 11.5825C7.62262 11.005 13.1926 9.655 13.3851 10.555ZM19.8701 5.695C20.0501 6.095 21.3701 5.1175 22.0126 4.58C22.5326 4.1475 23.1626 3.755 22.8276 3.23C22.4426 2.63 21.7576 3.145 21.0926 3.85C20.6576 4.3125 19.6751 5.2675 19.8701 5.695Z" fill="#FF5F5D"/>
<path d="M10.0225 22.4225C11.0175 22.7375 10.67 26.225 11.415 26.1925C12.2775 26.1575 11.6475 23.2325 12.44 22.5275C13.2325 21.82 14.23 21.935 15.665 21.2275C17.1 20.52 18.6775 19.19 19.79 17.8825C20.905 16.575 22.1475 15.0975 22.725 14.6475C23.3025 14.1975 26.325 13.2975 27.3725 14.0275C28.4225 14.755 28.0375 17.84 28.0375 17.84C28.0375 17.84 25.9925 21.505 21.88 23.9375C17.7675 26.37 15.4275 27.335 10.4225 26.7625C5.41754 26.19 2.41504 20.645 2.41504 20.645C2.41504 20.645 4.34504 21.4675 6.52754 21.825C8.71004 22.1825 9.03254 22.11 10.0225 22.4225Z" fill="#DC0D28"/>
<path d="M21.895 7.3675C20.66 8.1175 19.56 9.5175 20.12 11.395C20.68 13.2725 23.585 14.4125 25.4975 12.5825C27.1925 10.9625 26.7925 9.0725 26.015 8.155C25.2425 7.24 23.505 6.39 21.895 7.3675Z" fill="white"/>
<path d="M24.485 8.20751C23.175 7.54251 21.8325 8.30251 21.415 9.15501C21 10.0075 21.0525 11.205 22.0425 11.915C23.1025 12.6775 24.73 12.295 25.2975 11.1275C25.865 9.96001 25.525 8.73501 24.485 8.20751Z" fill="#FFA8A7"/>
</svg>
