<svg width="32" height="32" viewBox="0 0 32 32" fill="none" xmlns="http://www.w3.org/2000/svg">
<path d="M24.8889 1.77778C27.2747 0.584896 29.3334 5.33334 27.5556 13.3333C26.5725 17.7573 23.1112 21.3333 19.5556 24C16 26.6667 9.77782 23.1111 13.3334 19.5556C16.8889 16 20.4445 13.3333 22.2223 8.00001C23.3814 4.52267 23.1112 2.66667 24.8889 1.77778Z" fill="#FFE8B6"/>
<path d="M27.5556 7.11111C27.5556 9.77778 26.6667 15.1111 24 18.6667C21.3333 22.2222 17.7778 23.1111 20.4444 19.5556C23.1111 16 24.8889 13.3333 25.7778 9.77778C26.6667 6.22222 27.5556 3.55556 27.5556 7.11111Z" fill="#FFD983"/>
<path d="M19.5556 17.7778C19.2925 18.304 20.5929 14.3707 16.8889 12.4444C15.1254 11.5271 8.00003 13.3333 13.3334 13.3333C16 13.3333 16.8889 15.1111 15.1111 16.8889C14.8769 17.1215 14.6893 17.3966 14.5582 17.6996C14.1876 18.0071 13.7822 18.3298 13.3334 18.6667C11.3218 20.1751 8.14225 22.424 4.44447 24.8889C1.7778 26.6667 0.888916 27.5556 0.888916 28.4444C0.888916 31.1111 8.88892 31.1111 13.3334 29.3333C17.7778 27.5556 22.2222 23.1111 22.2222 23.1111L25.7778 19.5556C23.1111 16 19.5556 17.7778 19.5556 17.7778Z" fill="#FFCC4D"/>
<path d="M19.5556 17.7778C19.5556 17.7778 21.1484 13.5742 16.8889 11.5555C13.296 9.85244 9.77777 10.6667 7.11111 12.4444C4.44444 14.2222 5.33333 16 4.44444 16.8889C3.55555 17.7778 5.33333 18.6667 7.11111 16.8889C8.88888 15.1111 14.5031 12.5378 16.8889 13.3333C19.5556 14.2222 18.6667 15.9991 19.5556 17.7778Z" fill="#FFE8B6"/>
<path d="M23.1111 31.1111H19.5556C17.7778 31.1111 16.8889 32 16 32C15.1111 32 14.2223 30.2222 16 30.2222C17.7778 30.2222 19.5556 30.2222 20.4445 29.3333C21.3334 28.4444 24.8889 31.1111 23.1111 31.1111Z" fill="#A6D388"/>
<path d="M16 32C16.4909 32 16.8889 31.602 16.8889 31.1111C16.8889 30.6202 16.4909 30.2222 16 30.2222C15.5091 30.2222 15.1111 30.6202 15.1111 31.1111C15.1111 31.602 15.5091 32 16 32Z" fill="#3E721D"/>
<path d="M28.6294 24.8889C28.6294 24.8889 24.8889 31.1111 23.1111 31.1111H19.5556C17.7778 31.1111 19.5556 30.2222 20.4445 29.3333C21.3334 28.4445 24.8889 29.3333 24.8889 24C24.8889 21.3333 28.6294 24.8889 28.6294 24.8889Z" fill="#FFCC4D"/>
<path d="M23.1112 16.8889C25.7779 16.8889 30.2223 19.5556 29.3334 24.8889C28.4446 30.2222 24.889 31.1111 23.1112 31.1111H21.3334C19.5557 31.1111 20.4446 30.2222 21.3334 29.3333C22.2223 28.4444 24.889 29.3333 24.889 24C24.889 21.3333 21.3334 17.7778 19.5557 17.7778C19.5557 17.7778 21.3334 16.8889 23.1112 16.8889Z" fill="#FFE8B6"/>
<path d="M15.1111 18.6667C17.7778 18.6667 19.5556 19.5556 17.7778 21.3333C16.3725 22.7387 12.4445 25.7778 8.88892 26.6667C5.33337 27.5556 1.77781 27.5556 4.44448 25.7778C7.11114 24 13.1236 18.6667 15.1111 18.6667Z" fill="#FFD983"/>
<path d="M1.7778 27.5556C2.66669 27.5556 2.66669 27.5556 2.66669 28.1484C2.66669 28.7404 2.66669 29.3333 1.7778 29.3333C0.888916 29.3333 0.888916 28.1484 0.888916 28.1484C0.888916 28.1484 0.888916 27.5556 1.7778 27.5556Z" fill="#C1694F"/>
</svg>
