<svg width="21" height="20" viewBox="0 0 21 20" fill="none" xmlns="http://www.w3.org/2000/svg">
<g clip-path="url(#clip0_2_947)">
<path d="M15.1064 7.49999L11.4564 2.03332C11.2981 1.79999 11.0314 1.68332 10.7647 1.68332C10.4981 1.68332 10.2314 1.79999 10.0731 2.04165L6.42305 7.49999H2.43139C1.97305 7.49999 1.59805 7.87499 1.59805 8.33332C1.59805 8.40832 1.60639 8.48332 1.63139 8.55832L3.74805 16.2833C3.93972 16.9833 4.58139 17.5 5.34805 17.5H16.1814C16.9481 17.5 17.5897 16.9833 17.7897 16.2833L19.9064 8.55832L19.9314 8.33332C19.9314 7.87499 19.5564 7.49999 19.0981 7.49999H15.1064ZM8.26472 7.49999L10.7647 3.83332L13.2647 7.49999H8.26472ZM10.7647 14.1667C9.84805 14.1667 9.09805 13.4167 9.09805 12.5C9.09805 11.5833 9.84805 10.8333 10.7647 10.8333C11.6814 10.8333 12.4314 11.5833 12.4314 12.5C12.4314 13.4167 11.6814 14.1667 10.7647 14.1667Z" fill="white"/>
</g>
<defs>
<clipPath id="clip0_2_947">
<rect width="20" height="20" fill="white" transform="translate(0.764709)"/>
</clipPath>
</defs>
</svg>
