<svg width="24" height="24" viewBox="0 0 29 29" fill="none" xmlns="http://www.w3.org/2000/svg">
<path d="M14.667 0.666626C12.8285 0.666626 11.008 1.03774 9.30942 1.75877C7.61087 2.4798 6.06752 3.53664 4.7675 4.86893C2.14199 7.55963 0.666992 11.209 0.666992 15.0142C0.666992 21.3558 4.68499 26.7362 10.243 28.6444C10.943 28.7592 11.167 28.3144 11.167 27.927V25.5023C7.28899 26.3631 6.46299 23.5797 6.46299 23.5797C5.81899 21.9154 4.90899 21.4706 4.90899 21.4706C3.63499 20.5811 5.00699 20.6098 5.00699 20.6098C6.40699 20.7102 7.14899 22.0876 7.14899 22.0876C8.36699 24.2684 10.425 23.6227 11.223 23.2784C11.349 22.3458 11.713 21.7145 12.105 21.3558C8.99699 20.9971 5.73499 19.7633 5.73499 14.2968C5.73499 12.7042 6.26699 11.4273 7.17699 10.4086C7.03699 10.0499 6.54699 8.55779 7.31699 6.62087C7.31699 6.62087 8.49299 6.23349 11.167 8.08432C12.273 7.76868 13.477 7.61085 14.667 7.61085C15.857 7.61085 17.061 7.76868 18.167 8.08432C20.841 6.23349 22.017 6.62087 22.017 6.62087C22.787 8.55779 22.297 10.0499 22.157 10.4086C23.067 11.4273 23.599 12.7042 23.599 14.2968C23.599 19.7776 20.323 20.9828 17.201 21.3415C17.705 21.7863 18.167 22.6615 18.167 23.9958V27.927C18.167 28.3144 18.391 28.7735 19.105 28.6444C24.663 26.7218 28.667 21.3558 28.667 15.0142C28.667 13.1301 28.3049 11.2644 27.6013 9.52362C26.8977 7.78289 25.8665 6.20123 24.5665 4.86893C23.2665 3.53664 21.7231 2.4798 20.0246 1.75877C18.326 1.03774 16.5055 0.666626 14.667 0.666626Z" fill="white"/>
</svg>
