<svg width="20" height="20" viewBox="0 0 12 12" fill="none" xmlns="http://www.w3.org/2000/svg">
    <g clip-path="url(#clip0_15_14)">
        <path fill-rule="evenodd" clip-rule="evenodd"
              d="M4.75 1.25C5.428 1.25 5.897 1.676 6.1975 2.2765C6.4585 2.799 6.483 3.4265 6.496 4H8.913C9.12054 3.99997 9.32582 4.04301 9.51587 4.12639C9.70592 4.20977 9.8766 4.33168 10.0171 4.48442C10.1576 4.63715 10.2649 4.81738 10.3322 5.0137C10.3995 5.21003 10.4253 5.41819 10.408 5.625L10.2275 7.7905C10.1546 8.66545 9.75558 9.48106 9.10949 10.0756C8.46341 10.6701 7.61748 11 6.7395 11H5.9835C5.1278 11.0019 4.30145 10.6882 3.6625 10.119C3.59446 10.0587 3.514 10.0141 3.42682 9.98839C3.33964 9.96264 3.24787 9.95637 3.158 9.97C3.02294 9.99014 2.88656 10.0002 2.75 10C2.196 10 1.736 9.69 1.438 9.196C1.148 8.716 1 8.0535 1 7.25C1 6.447 1.1485 5.7845 1.438 5.3045C1.736 4.81 2.196 4.5 2.75 4.5C2.8905 4.5 3.0395 4.525 3.1885 4.567C3.4175 3.967 3.5805 3.3485 3.5035 2.6995C3.4175 1.977 4.008 1.25 4.75 1.25Z"
              fill="#FFC700"/>
    </g>
    <defs>
        <clipPath id="clip0_15_14">
            <rect width="12" height="12" fill="white"/>
        </clipPath>
    </defs>
</svg>
