<svg xmlns="http://www.w3.org/2000/svg" width="210" height="128" fill="none"><path fill="#222" d="M56.245 48.187v72.972c0 1.814-.592 3.554-1.647 4.837-1.055 1.283-2.486 2.004-3.978 2.004s-2.922-.721-3.977-2.004c-1.055-1.283-1.648-3.023-1.648-4.837V91.514H5.619a4.842 4.842 0 0 1-2.584-.768c-.798-.504-1.486-1.233-2.005-2.126a7.75 7.75 0 0 1-.977-3.01 8.241 8.241 0 0 1 .269-3.217l22.5-77.533a7.405 7.405 0 0 1 1.075-2.416 5.967 5.967 0 0 1 1.77-1.707 4.875 4.875 0 0 1 2.18-.723c.758-.06 1.52.07 2.237.378a5.547 5.547 0 0 1 1.934 1.418 6.967 6.967 0 0 1 1.32 2.23c.312.843.48 1.755.493 2.68a8.158 8.158 0 0 1-.415 2.7L13.588 77.833h31.407V48.187c0-1.814.593-3.554 1.648-4.837 1.054-1.283 2.485-2.004 3.977-2.004s2.923.72 3.978 2.004c1.055 1.283 1.647 3.023 1.647 4.837ZM210 48.187v72.972c0 1.814-.592 3.554-1.647 4.837-1.055 1.283-2.486 2.004-3.978 2.004s-2.923-.721-3.978-2.004c-1.055-1.283-1.647-3.023-1.647-4.837V91.514h-39.376a4.84 4.84 0 0 1-2.584-.768c-.798-.504-1.486-1.233-2.005-2.126a7.743 7.743 0 0 1-.977-3.01 8.243 8.243 0 0 1 .269-3.217l22.5-77.533a7.418 7.418 0 0 1 1.075-2.416 5.966 5.966 0 0 1 1.77-1.707 4.876 4.876 0 0 1 2.179-.723c.759-.06 1.52.07 2.237.378a5.535 5.535 0 0 1 1.935 1.418 6.946 6.946 0 0 1 1.32 2.23c.312.843.479 1.755.493 2.68a8.166 8.166 0 0 1-.415 2.7l-19.828 68.412h31.407V48.187c0-1.814.592-3.554 1.647-4.837 1.055-1.283 2.486-2.004 3.978-2.004s2.923.72 3.978 2.004c1.055 1.283 1.647 3.023 1.647 4.837ZM105.003 109.458c-9.091 0-16.364-4.318-21.819-12.953-5.455-8.635-8.182-19.52-8.182-32.655 0-13.139 2.727-24.026 8.182-32.661 5.455-8.635 12.728-12.95 21.819-12.946 9.091 0 16.364 4.317 21.819 12.952 5.454 8.635 8.182 19.52 8.182 32.655 0 13.14-2.728 24.027-8.182 32.662-5.455 8.635-12.728 12.95-21.819 12.946Zm0-13.357c6 0 10.5-3.257 13.5-9.773 3-6.515 4.5-14.008 4.5-22.478 0-8.47-1.5-15.962-4.5-22.478-3-6.515-7.5-9.773-13.5-9.773s-10.5 3.258-13.5 9.773c-3 6.516-4.5 14.008-4.5 22.478 0 8.47 1.5 15.963 4.5 22.478 3 6.516 7.5 9.773 13.5 9.773Z"/></svg>