<svg width="32" height="32" fill="none" xmlns="http://www.w3.org/2000/svg"><path d="M31.004 3.88a1 1 0 0 1 0 1.412L28.918 7.38l-4-4 2.086-2.088a1 1 0 0 1 1.414 0l2.586 2.586v.002Zm-3.5 4.912-4-4L9.878 18.42a.999.999 0 0 0-.242.392l-1.61 4.828a.5.5 0 0 0 .632.632l4.828-1.61c.148-.048.282-.13.392-.24l13.626-13.63Z" fill="#222"/><path fill-rule="evenodd" clip-rule="evenodd" d="M2 27a3 3 0 0 0 3 3h22a3 3 0 0 0 3-3V15a1 1 0 0 0-2 0v12a1 1 0 0 1-1 1H5a1 1 0 0 1-1-1V5a1 1 0 0 1 1-1h13a1 1 0 1 0 0-2H5a3 3 0 0 0-3 3v22Z" fill="#222"/></svg>