<svg width="96" height="96" fill="none" xmlns="http://www.w3.org/2000/svg"><circle cx="48" cy="48" r="48" fill="#D9D9D9"/><path d="M47.875 18.789c-2.65 0-5.063 1.347-6.313 3.454l-.55.927-.95-.51a6.143 6.143 0 0 0-2.912-.736c-3.538 0-6.413 2.946-6.413 6.651 0 3.313 2.325 6.075 5.438 6.575l.95.15v6.675c7.237-1.387 14.5-1.45 21.75 0v-8.712l.6-.325c1.962-1.038 3.262-3.263 3.262-5.77 0-3.6-2.587-6.39-5.675-6.39-.812 0-1.625.202-2.362.59l-.775.4-.575-.635C52 19.66 50 18.789 47.875 18.789ZM48 43.138c-3.2 0-6.388.3-9.588.875-.112.75-.162 1.525-.162 2.325 0 3.625 1.15 6.9 2.95 9.212 1.8 2.313 4.187 3.663 6.8 3.663 2.612 0 5-1.35 6.8-3.663 1.8-2.312 2.95-5.587 2.95-9.212 0-.8-.063-1.588-.163-2.338A51.8 51.8 0 0 0 48 43.138ZM42.087 59.5l-11.15 3.713-3.497 14H56.2L54.387 64.5l2.225-.325 1.863 13.038h10.087l-3.5-14-11.15-3.713c-1.725 1.238-3.75 1.963-5.912 1.963-2.163 0-4.188-.725-5.913-1.963Zm8.663 6.588a1.25 1.25 0 1 1 0 2.5 1.25 1.25 0 0 1 0-2.5Zm.875 5.75a1.25 1.25 0 1 1 0 2.5 1.25 1.25 0 0 1 0-2.5Z" fill="#fff"/></svg>