<svg width="32" height="32" viewBox="0 0 32 32" fill="none" xmlns="http://www.w3.org/2000/svg">
<path d="M16 0C7.29231 0 0 6.5024 0 14.72C0 18.5984 1.67262 22.0774 4.30769 24.6797C3.98665 25.5502 3.53192 26.3607 2.96123 27.0797C2.20415 28.0349 1.36769 28.9189 0.461538 29.7216C0.262789 29.8874 0.118429 30.1133 0.0483803 30.3681C-0.0216685 30.6229 -0.0139523 30.894 0.0704638 31.1441C0.15488 31.3941 0.311834 31.6107 0.519666 31.764C0.727499 31.9173 0.975963 31.9998 1.23077 32C3.95692 32 5.91754 31.968 7.69231 31.4803C9.28 31.0426 10.6449 30.1261 12.0382 28.8397C13.3058 29.1558 14.6142 29.44 16 29.44C24.7077 29.44 32 22.9376 32 14.72C32 6.5024 24.7077 0 16 0ZM16 2.56C23.5385 2.56 29.5385 8.0896 29.5385 14.72C29.5385 21.3504 23.5385 26.88 16 26.88C14.6597 26.88 13.2677 26.6394 12 26.2797C11.7973 26.2267 11.5849 26.2282 11.3829 26.2842C11.1809 26.3402 10.996 26.4488 10.8455 26.5997C9.46092 27.9808 8.44062 28.6246 7.07692 28.9997C6.44923 29.1725 5.23815 29.1315 4.384 29.2006C4.55631 28.9984 4.71754 28.8909 4.88492 28.6797C5.85231 27.4509 6.73477 26.1517 7.00062 24.6797C7.03724 24.4587 7.0174 24.2316 6.9431 24.0211C6.86879 23.8106 6.74263 23.6242 6.57723 23.4803C3.99877 21.2659 2.46154 18.1619 2.46154 14.72C2.46154 8.0896 8.46154 2.56 16 2.56ZM13.6542 7.55968C13.4375 7.61025 13.2381 7.72082 13.0769 7.87968L11.2308 9.68064L12.8849 11.5597L14.3458 10.1197H17.3071L18.4615 11.4816V13.3619L15.3071 15.561C15.1385 15.6804 15.001 15.8415 14.9072 16.0299C14.8133 16.2182 14.7659 16.4279 14.7692 16.64V19.2H17.2308V17.3594L20.3852 15.1603C20.554 15.0408 20.6916 14.8795 20.7855 14.6909C20.8793 14.5023 20.9266 14.2923 20.9231 14.08V11.0003C20.9215 10.691 20.8122 10.3927 20.6154 10.1606L18.7692 8C18.6543 7.86253 18.5126 7.75214 18.3534 7.67621C18.1942 7.60028 18.0213 7.56055 17.8462 7.55968H13.9225C13.8333 7.54951 13.7433 7.54951 13.6542 7.55968ZM14.7692 20.48V23.04H17.2308V20.48H14.7692Z" fill="#FCBA08"/>
</svg>
