<svg width="28" height="28" viewBox="0 0 28 28" fill="none" xmlns="http://www.w3.org/2000/svg">
<path d="M4.66667 15.3333V4.66667C4.66667 3.95942 4.94762 3.28115 5.44772 2.78105C5.94781 2.28095 6.62609 2 7.33333 2H23.3333C24.0406 2 24.7189 2.28095 25.219 2.78105C25.719 3.28115 26 3.95942 26 4.66667V22C26 23.3333 25.2 26 22 26M22 26H6C4.66667 26 2 25.2 2 22V19.3333H18V22C18 25.2 20.6667 26 22 26ZM10 7.33333H20.6667M10 12.6667H15.3333" stroke="#FCBA08" stroke-width="2.66667" stroke-linecap="round" stroke-linejoin="round"/>
</svg>
