<svg width="32" height="32" viewBox="0 0 32 32" fill="none" xmlns="http://www.w3.org/2000/svg">
<path d="M15.824 28.0218L9.088 31.633L8.9296 31.7034C7.7856 32.1354 6.7056 32.049 5.8848 31.3162C5.1136 30.6282 4.8336 29.6426 4.9936 28.5082L6.12 20.7322L1.032 15.385C0.151999 14.489 -0.192001 13.3882 0.103999 12.2362C0.431999 10.9578 1.512 10.2234 3.0656 9.97697L9.8288 8.95617L13.3696 1.62017C13.92 0.584972 14.7776 -0.0278279 15.8576 0.000972069C16.9136 0.0281721 17.7504 0.676172 18.4064 1.82977L21.8304 9.00737L29.4144 10.0602C30.6192 10.2682 31.5072 10.8954 31.8624 11.9418C32.2144 12.9866 31.8784 14.0426 30.9712 15.121L25.4672 20.737L26.7024 28.5066C26.8976 29.8506 26.6624 30.9146 25.7648 31.5466C24.9552 32.1178 23.9424 32.1178 22.7776 31.7178L22.5856 31.633L15.824 28.0218Z" fill="#FCBA08"/>
</svg>
