<svg width="32" height="32" fill="none" xmlns="http://www.w3.org/2000/svg">
    <g clip-path="url(#a)">
        <path d="M5 2a2 2 0 0 0-2 2v2a2 2 0 0 0 2 2h1v18a4 4 0 0 0 4 4h12a4 4 0 0 0 4-4V8h1a2 2 0 0 0 2-2V4a2 2 0 0 0-2-2h-7a2 2 0 0 0-2-2h-4a2 2 0 0 0-2 2H5Zm6 8a1 1 0 0 1 1 1v14a1 1 0 0 1-2 0V11a1 1 0 0 1 1-1Zm5 0a1 1 0 0 1 1 1v14a1 1 0 0 1-2 0V11a1 1 0 0 1 1-1Zm6 1v14a1 1 0 0 1-2 0V11a1 1 0 0 1 2 0Z"
              fill="#343434"/>
    </g>
    <defs>
        <clipPath id="a">
            <path fill="#fff" d="M0 0h32v32H0z"/>
        </clipPath>
    </defs>
</svg>