<svg width="32" height="32" viewBox="0 0 32 32" fill="none" xmlns="http://www.w3.org/2000/svg">
<path d="M16.0001 16.312H3.66675C3.66675 22.456 11.3981 27.7386 11.3981 27.7386H16.0001" stroke="white" stroke-width="0.666667" stroke-linecap="round" stroke-linejoin="round"/>
<path d="M7.2561 17.716C7.2561 22.244 12.3414 25.5853 12.3414 25.5853M16.0001 16.312H28.3334C28.3334 22.456 20.6021 27.7387 20.6021 27.7387H16.0001M9.3961 16.312C8.49877 12.9527 14.4988 10.6433 19.8828 9.93L20.4094 8.96066L22.5321 11.5407L21.3674 11.73C20.7974 13.6033 17.9441 16.312 17.9441 16.312" stroke="white" stroke-width="0.666667" stroke-linecap="round" stroke-linejoin="round"/>
<path d="M10.3401 16.312C10.5321 14.5826 12.5374 12.636 20.1881 10.2993" stroke="white" stroke-width="0.666667" stroke-linecap="round" stroke-linejoin="round"/>
<path d="M20.3853 10.54C17.492 11.9893 14.1186 13.6547 11.7546 16.312M20.95 11.2247C17.9433 15.3087 16 16.312 16 16.312M14.3366 16.312C16.15 15.252 20.6633 10.876 20.6633 10.876M22.0513 10.9687L27.4853 6.56465C27.5746 6.49244 27.6487 6.40333 27.7035 6.30244C27.7582 6.20155 27.7926 6.09084 27.8045 5.97666C27.8165 5.86248 27.8058 5.74707 27.7731 5.63702C27.7404 5.52697 27.6863 5.42445 27.614 5.33532C27.5417 5.24615 27.4526 5.17209 27.3517 5.11736C27.2508 5.06264 27.1401 5.02832 27.026 5.01638C26.9118 5.00443 26.7964 5.01508 26.6864 5.04773C26.5763 5.08038 26.4738 5.13438 26.3846 5.20665L20.95 9.60999" stroke="white" stroke-width="0.666667" stroke-linecap="round" stroke-linejoin="round"/>
<path d="M19.8833 9.92999L21.3673 11.73" stroke="white" stroke-width="0.666667" stroke-linecap="round" stroke-linejoin="round"/>
</svg>
