<svg width="32" height="32" viewBox="0 0 32 32" fill="none" xmlns="http://www.w3.org/2000/svg">
<path d="M15.1875 8.48C12.4725 8.1275 9.79505 7.475 7.26505 9.0525C4.90255 10.5275 3.09255 13.045 2.40255 15.74C1.42755 19.5475 2.00755 23.8825 4.61005 26.9325C6.04005 28.605 8.41755 30.3875 10.5425 31.05C15.9975 32.755 22.74 31.9475 26.1625 26.865C27.14 25.415 28.12 23.4475 28.4775 21.7275C29.48 16.9125 28.3575 11.27 23.3725 9.1975C21.1525 8.275 18.78 8.7825 16.46 8.615C16.0325 8.5825 15.61 8.535 15.1875 8.48Z" fill="#DB4437"/>
<path d="M23.4801 0.145003C25.2901 0.0850034 28.3251 0.895003 29.5526 2.1875C29.7026 2.35 29.9901 2.5775 30.0326 2.7775C30.1001 3.105 29.8401 3.385 29.6501 3.625C26.9501 7.0725 21.4201 8.86 17.9201 6.5175C17.4301 6.19 17.6926 5.5825 17.7926 5.08C18.1951 3.075 19.7426 1.235 21.6501 0.507503C22.2476 0.280003 22.8651 0.165003 23.4801 0.145003Z" fill="#BDCF46"/>
<path d="M17.8524 5.47999C17.8349 5.41499 17.8024 5.35749 17.7549 5.31749C17.6549 5.23999 17.4474 5.16249 17.3299 5.11999C17.1524 5.05249 16.9624 5.02499 16.7774 5.02499C16.7074 5.02499 16.6399 5.02749 16.5749 5.03499C16.3249 5.06499 16.1099 5.15749 15.9674 5.35999C15.7774 5.62249 15.8099 5.91999 15.7599 6.22499C15.6899 6.65999 15.4849 7.05499 15.3724 7.47999C15.2849 7.80749 15.2149 8.13999 15.1524 8.47499C15.1049 8.71999 15.0649 8.96499 15.0349 9.21249C14.9274 10.13 14.7774 11.0475 14.8174 11.975C14.8199 12.1025 14.8249 12.23 14.8324 12.3575C14.8349 12.4225 14.8424 12.485 14.8524 12.55C14.8674 12.635 14.8724 12.7325 14.8824 12.83C14.8874 12.865 14.8899 12.9 14.8949 12.935C14.9224 13.085 14.9749 13.225 15.1174 13.3025C15.2949 13.4025 15.5049 13.4475 15.7149 13.45C15.7799 13.45 15.8424 13.44 15.9074 13.435L16.0724 13.425C16.1524 13.4025 16.2324 13.3725 16.3174 13.35C16.4499 13.3175 16.5799 13.25 16.6724 13.1475C16.7549 13.055 16.7649 12.96 16.7599 12.85L16.7524 12.7725C16.7424 12.675 16.7349 12.575 16.7299 12.475C16.7199 12.2775 16.7124 12.075 16.7074 11.8775C16.6924 11.4325 16.6999 10.9825 16.7399 10.5375C16.7674 10.2725 16.7799 10.0025 16.8024 9.73749C16.8299 9.36749 16.8824 8.99999 16.9449 8.63249C16.9599 8.55499 16.9674 8.47999 16.9824 8.40499C17.0724 7.93499 17.2399 7.51249 17.4199 7.06749C17.5024 6.86249 17.5374 6.64499 17.6124 6.44749C17.6949 6.24249 17.8774 6.12999 17.8774 5.88499C17.8774 5.77249 17.8874 5.60999 17.8524 5.47999Z" fill="#855C52"/>
<path d="M9.79243 10.8975C9.47243 10.4675 8.59493 10.425 7.96993 10.64C7.19743 10.905 6.50993 11.4825 6.02743 12.1325C5.61243 12.6925 5.00243 13.8675 5.60493 14.51C5.89993 14.8225 6.25743 14.7 6.59743 14.53C7.21493 14.2225 7.58743 13.55 8.10743 13.1175C8.64243 12.675 10.5349 11.88 9.79243 10.8975Z" fill="white"/>
<path d="M15.0051 12.7525C14.4201 12.6275 13.8501 12.42 13.3151 12.1575C13.0351 12.02 12.2251 11.375 12.1426 12.0525C12.0376 12.87 13.1651 13.575 13.7251 13.8375C14.6901 14.2925 15.7701 14.455 16.8076 14.245C17.8076 14.0425 18.6601 13.55 19.3001 12.685C19.3826 12.5725 19.4376 12.44 19.4776 12.315C19.6201 11.8625 19.1251 11.8575 18.8601 11.985C18.6451 12.0875 18.4601 12.2525 18.2476 12.355C17.8376 12.5525 17.4076 12.7125 16.9701 12.7975C16.3151 12.9225 15.6526 12.89 15.0051 12.7525Z" fill="#B93221"/>
</svg>
