<svg width="32" height="32" viewBox="0 0 32 32" fill="none" xmlns="http://www.w3.org/2000/svg">
<path d="M1.06504 17.225C1.39504 22.15 6.93254 29.95 16.3225 30.58C22.74 31.0125 28.94 27.9925 30.2825 20.8775C31.5175 14.3375 29.0125 8.18 27.02 5.4225C23.91 1.12 16.6175 -1.3275 8.82504 3.26C1.81754 7.3925 0.810041 13.4075 1.06504 17.225Z" fill="#95683D"/>
<path d="M2.98993 19.885C6.38743 26.135 16.3474 26.555 21.7549 22.2675C27.6924 17.56 29.0749 10.69 25.8499 5.89C22.1049 0.317495 13.4774 1.1125 8.20493 4.785C3.03243 8.39 0.424934 15.1675 2.98993 19.885Z" fill="#B7D118"/>
<path d="M9.79989 12.385C9.60239 12.98 10.3874 13.475 10.2674 14.63C10.0924 16.2925 8.94989 17.25 9.27489 17.575C9.68239 17.9825 10.8974 17.2175 12.4549 16.9325C14.2049 16.6125 14.4974 17.41 14.9624 17.165C15.5174 16.8725 15.2324 15.58 16.3624 14.57C17.4699 13.5775 18.5499 13.55 18.7549 13.2275C18.9599 12.9075 18.5799 11.9725 18.8424 10.835C19.1049 9.6975 20.0474 8.665 19.7274 8.2275C19.4074 7.79 18.0949 9.045 16.5974 8.9675C15.6074 8.9175 15.0799 8.4425 14.6724 8.6475C14.2649 8.8525 14.0824 10.1225 12.9224 11.1275C11.4024 12.445 9.94489 11.9475 9.79989 12.385Z" fill="#E5DDA0"/>
<path d="M19.9375 3.54249C19.1 3.16749 18.515 4.98749 18.19 5.63999C17.865 6.29249 17.1975 7.57249 17.8875 7.92249C18.475 8.22249 19.355 6.24499 19.6575 5.63999C19.9625 5.03499 20.6525 3.86249 19.9375 3.54249ZM20.8475 6.85249C21.1375 7.18999 21.735 6.79999 22.2125 6.39249C22.6775 5.99749 22.83 5.49499 22.6175 5.21999C22.2925 4.79999 21.8725 4.89499 21.29 5.45249C20.8625 5.86499 20.4275 6.36249 20.8475 6.85249ZM20.405 8.99499C20.565 9.67499 22.31 9.24999 23.5825 8.99499C25.0975 8.69249 26.1775 8.54749 26.02 7.68999C25.845 6.74499 24.3375 7.26249 23.2025 7.54749C21.2675 8.02999 20.2075 8.15249 20.405 8.99499ZM19.7375 11.4325C19.86 12.31 22.09 11.8975 23.9775 11.875C25.6325 11.855 26.7425 11.7175 26.6575 10.99C26.5675 10.23 25.1575 10.3775 23.575 10.495C21.9875 10.61 19.595 10.4325 19.7375 11.4325ZM20.3725 13.4875C20.11 14.2125 20.7525 14.3975 22.26 15.07C23.375 15.565 24.2975 16.145 24.5975 15.38C24.8675 14.6925 23.875 14.3025 23.015 13.9025C21.6175 13.2475 20.64 12.7525 20.3725 13.4875ZM18.475 14.315C17.7225 15.2825 19.5875 16.2425 20.94 17.29C22.3 18.345 23.36 19.105 23.795 18.4425C24.2425 17.7575 22.92 16.965 21.755 16.125C20.59 15.2875 18.8875 13.7825 18.475 14.315ZM16.61 16.4325C16.1325 16.795 16.3175 17.2175 17.03 18.13C17.775 19.085 18.3425 19.8075 18.575 20.0875C18.8075 20.3675 19.5975 21.46 20.2 21.025C20.85 20.555 20.035 19.5775 19.8025 19.25C19.57 18.925 18.0525 17.04 17.655 16.62C17.2575 16.2 16.9375 16.1825 16.61 16.4325ZM14.4625 18.245C14.01 18.4075 13.915 18.92 14.2175 20.3875C14.4875 21.695 14.6725 22.0425 14.86 22.6475C14.93 22.875 15.2075 23.8975 15.93 23.69C16.525 23.5175 16.095 22.2175 15.98 21.6475C15.81 20.8125 15.045 18.035 14.4625 18.245ZM12.5525 17.7325C11.8775 17.57 11.675 18.7925 11.5525 20.235C11.46 21.33 11.325 22.5375 12.06 22.5575C12.9325 22.58 12.895 21.25 12.9675 20.245C13.06 18.9875 13.12 17.87 12.5525 17.7325ZM8.25003 23.4775C9.10003 23.82 9.56753 22.4125 9.92503 21.52C10.39 20.355 10.765 19.5575 10.905 19.2075C11.03 18.8975 10.9575 18.31 10.4225 18.1225C9.88753 17.935 9.55753 18.8775 9.16003 19.7375C8.76253 20.5975 7.39503 23.135 8.25003 23.4775ZM5.75003 21.84C6.38753 22.3 6.76253 21.6175 7.48503 20.7075C8.20753 19.8 9.23003 18.7025 8.60503 18.2775C8.05003 17.9 7.31253 18.9675 6.70503 19.715C6.09753 20.46 5.05253 21.335 5.75003 21.84ZM3.49503 18.7375C3.72253 19.405 4.70003 19.015 5.81753 18.62C6.93503 18.225 8.96253 17.705 8.66003 16.9225C8.47503 16.445 6.96753 16.95 5.57003 17.3475C4.87503 17.5425 3.19003 17.84 3.49503 18.7375ZM3.48503 14.8675C3.55003 15.705 4.86003 15.53 6.35003 15.6C8.94003 15.72 9.54253 15.6175 9.55753 15.035C9.58003 14.15 7.97503 14.3275 6.26753 14.1975C4.90253 14.0925 3.40253 13.8175 3.48503 14.8675ZM4.94003 11C4.69003 11.59 5.12003 12.0125 6.55253 12.5125C8.12253 13.06 8.77253 13.3375 9.06753 12.715C9.36253 12.0925 8.21503 11.72 7.03753 11.2325C6.49753 11.01 5.23753 10.3 4.94003 11ZM6.03253 8.25249C5.53003 8.93999 6.33753 9.49749 7.64003 10.3C8.93253 11.095 10.13 11.9925 10.6325 11.2375C11.08 10.565 9.20753 9.49749 8.39253 8.99749C7.57753 8.49749 6.44253 7.68749 6.03253 8.25249ZM9.50003 5.23249C9.07503 5.50749 9.20003 6.23249 10.1275 7.62499C11.055 9.01749 11.6175 10.0825 12.3175 9.77499C12.95 9.49749 11.99 7.83249 11.455 6.93249C10.9325 6.04749 10.195 4.78249 9.50003 5.23249ZM13.1325 3.66249C12.58 3.74999 12.4775 4.59499 12.7475 5.87749C13.0375 7.25999 13.34 8.52499 13.97 8.35749C14.6025 8.18999 14.4075 6.87249 14.195 5.44499C14.075 4.64999 13.8375 3.55249 13.1325 3.66249ZM16.9775 2.87249C16.3175 2.77999 16.0625 3.36249 15.8225 4.82999C15.58 6.29749 15.21 7.58499 15.8925 7.88499C16.615 8.20249 17.025 5.86249 17.2375 4.86499C17.3975 4.10749 17.7325 2.97999 16.9775 2.87249Z" fill="#7FB240"/>
<path d="M16.4075 6.3075C15.74 6.14 15.405 6.6525 15.31 7.3175C15.215 7.9825 15.45 8.3225 15.8225 8.3925C16.27 8.475 16.5875 8.215 16.755 7.62C16.925 7.025 16.8475 6.42 16.4075 6.3075ZM17.685 8.1575C18.055 8.35 18.475 8.135 18.665 7.685C18.775 7.4225 18.8475 6.805 18.43 6.6225C17.97 6.4225 17.6275 6.645 17.45 7.1175C17.3075 7.4975 17.32 7.9675 17.685 8.1575ZM20.5875 7.095C20.9125 7.3675 21.3425 7.2125 21.5675 6.99C21.745 6.8125 21.885 6.4 21.6025 6.0925C21.32 5.785 20.86 5.905 20.66 6.115C20.4575 6.33 20.22 6.79 20.5875 7.095ZM22.05 8.5575C22.1475 9.02 21.7775 9.36 21.19 9.465C20.6 9.57 20.305 9.37 20.2225 9.005C20.14 8.64 20.41 8.2625 20.835 8.1325C21.26 8.0025 21.9325 8.0025 22.05 8.5575ZM19.6725 11.4325C19.695 11.975 20.2625 12.1075 20.6875 12.07C21.23 12.0225 21.655 11.775 21.6425 11.35C21.63 10.925 21.235 10.665 20.6275 10.6775C20.1075 10.69 19.645 10.8425 19.6725 11.4325ZM20.1625 13.37C19.98 13.75 20.185 14.1125 20.6225 14.3025C21.06 14.49 21.6475 14.3625 21.73 13.995C21.8125 13.63 21.6125 13.2175 21.1175 13.0875C20.6225 12.9575 20.315 13.0525 20.1625 13.37ZM18.1325 14.2075C17.8225 14.58 17.98 15.0225 18.4625 15.4575C18.945 15.8925 19.5175 15.935 19.8075 15.6C20.1725 15.175 19.76 14.585 19.3475 14.255C18.935 13.925 18.37 13.925 18.1325 14.2075ZM16.0925 15.8825C15.6275 16.2825 15.915 16.8625 16.2575 17.285C16.6 17.71 17.165 17.875 17.52 17.5675C17.875 17.26 17.8275 16.66 17.285 16.1275C16.8475 15.7025 16.4225 15.6 16.0925 15.8825ZM14.205 17.6275C13.685 17.7775 13.7325 18.3225 13.84 18.76C13.945 19.1975 14.3625 19.5575 14.7475 19.42C15.1475 19.2775 15.255 18.9475 15.1375 18.3825C15.02 17.8175 14.5725 17.5225 14.205 17.6275ZM12.6725 17.25C12.245 17.21 11.9775 17.5225 11.8475 18.0525C11.7175 18.5825 11.9775 19.055 12.4125 19.1025C12.8475 19.15 13.18 18.7375 13.215 18.17C13.25 17.6025 13.05 17.285 12.6725 17.25ZM10.81 17.865C10.21 17.5725 9.82 18.16 9.6775 18.4675C9.535 18.775 9.405 19.4925 9.89 19.705C10.3725 19.9175 10.8025 19.4325 10.975 19.045C11.1625 18.62 11.2225 18.065 10.81 17.865ZM7.8725 19.125C8.25 19.5025 8.7425 19.06 8.8525 18.925C9.03 18.7 9.0325 18.3325 8.8525 18.135C8.6175 17.875 8.24 17.9825 8.0025 18.17C7.765 18.36 7.5775 18.83 7.8725 19.125ZM8.06 16.66C7.745 16.715 7.375 16.955 7.4575 17.355C7.54 17.755 7.8825 17.875 8.295 17.7925C8.7075 17.71 8.9325 17.3325 8.885 17.0375C8.84 16.7425 8.39 16.6025 8.06 16.66ZM7.565 15.0225C7.545 15.4825 7.9675 15.69 8.6025 15.7425C9.4625 15.8125 9.82 15.48 9.83 14.9525C9.84 14.4675 9.3925 14.2325 8.6975 14.245C8.0025 14.2575 7.59 14.48 7.565 15.0225ZM8 12.215C7.78 12.5575 8.0125 13.1475 8.51 13.205C9.01 13.2625 9.375 12.8075 9.21 12.32C9.045 11.83 8.3175 11.7225 8 12.215ZM8.945 10.185C8.6275 10.705 8.9925 11.1875 9.6525 11.495C10.2275 11.7625 10.6675 11.7075 10.89 11.365C11.115 11.0225 10.9375 10.4925 10.4175 10.1625C9.82 9.78 9.25 9.69 8.945 10.185ZM11.6225 8.51C11.325 8.675 11.055 9.1475 11.5525 9.83C11.895 10.3025 12.425 10.385 12.6975 10.23C12.9325 10.0975 13.0625 9.475 12.7575 9.0025C12.4975 8.61 12.025 8.2875 11.6225 8.51ZM13.71 6.9175C13.3075 6.9725 13.1325 7.5425 13.2725 7.955C13.4025 8.3325 13.685 8.5925 14.0875 8.51C14.4875 8.4275 14.525 7.8625 14.4875 7.65C14.4525 7.4375 14.24 6.8475 13.71 6.9175Z" fill="#303030"/>
</svg>
