<svg width="32" height="32" viewBox="0 0 32 32" fill="none" xmlns="http://www.w3.org/2000/svg">
<g clip-path="url(#clip0_2_794)">
<path d="M0.944092 4.55556C0.944092 4.55556 5.27743 0.111115 9.83298 0.111115C15.2783 0.111115 16.889 4.49956 16.889 4.49956C16.889 4.49956 17.4445 0.944003 21.3334 0.944003C25.2223 0.944003 27.5005 3.72178 27.5005 3.72178C27.5005 3.72178 24.3343 5.61067 23.3894 5.99911C20.8996 7.024 13.2783 9.16534 9.72276 8.27645C6.1672 7.38756 0.944092 4.55556 0.944092 4.55556Z" fill="#5C913B"/>
<path d="M16 5.33333C16 5.33333 16.9262 4.53689 21.3334 4.53689C27.1485 4.53689 32 8.81422 32 16.0276C32 26.2773 18.704 31.9218 18.704 31.9218C18.704 31.9218 0.888916 30.9627 0.888916 15.9796C0.888916 7.12711 6.88892 4.44444 10.6667 4.44444C15.0738 4.44444 16 5.33333 16 5.33333Z" fill="#FF886C"/>
<path d="M0.944092 4.55556C0.944092 4.55556 5.27743 0.111115 9.83298 0.111115C15.2783 0.111115 16.889 4.49956 16.889 4.49956C16.889 4.49956 13.2783 9.16623 9.72276 8.27734C6.1672 7.38845 0.944092 4.55556 0.944092 4.55556Z" fill="#77B255"/>
<path d="M20.4435 26.6667C20.2826 26.6665 20.1248 26.6228 19.9869 26.54C19.849 26.4572 19.7361 26.3386 19.6603 26.1967C19.5845 26.0549 19.5486 25.8951 19.5564 25.7344C19.5643 25.5738 19.6156 25.4183 19.7048 25.2845C19.7182 25.2649 21.3333 22.7005 21.3333 16.8889C21.3333 11.16 17.2639 7.83823 17.2222 7.80534C17.1292 7.73301 17.0516 7.64294 16.9937 7.54034C16.9359 7.43775 16.899 7.32469 16.8852 7.20772C16.8715 7.09075 16.8811 6.97222 16.9135 6.859C16.946 6.74578 17.0006 6.64013 17.0742 6.5482C17.1478 6.45627 17.239 6.37988 17.3424 6.32348C17.4457 6.26708 17.5593 6.23178 17.6765 6.21965C17.7936 6.20752 17.912 6.21878 18.0248 6.2528C18.1375 6.28681 18.2424 6.34289 18.3333 6.41778C18.5279 6.57334 23.1111 10.3147 23.1111 16.8889C23.1111 23.3067 21.2631 26.1529 21.1839 26.2711C21.1028 26.3931 20.9927 26.493 20.8635 26.562C20.7343 26.631 20.59 26.667 20.4435 26.6667Z" fill="#DD2E44"/>
</g>
<defs>
<clipPath id="clip0_2_794">
<rect width="32" height="32" fill="white"/>
</clipPath>
</defs>
</svg>
