<svg width="22" height="24" fill="none" xmlns="http://www.w3.org/2000/svg"><path d="M11 0C8.95 0 7.144 1.37 6.565 3.36a4.617 4.617 0 0 0-1.933-.433 4.606 4.606 0 0 0-3.275 1.371 4.71 4.71 0 0 0-.384 6.175 4.64 4.64 0 0 0 2.5 1.667v8.348h15.053V12.14A4.686 4.686 0 0 0 22 7.61a4.71 4.71 0 0 0-1.357-3.312 4.606 4.606 0 0 0-3.275-1.371c-.671 0-1.32.152-1.933.433C14.855 1.37 13.049 0 11 0Zm-.579 10.537h1.158v8.195H10.42v-8.195Zm-3.474 2.341h1.158v5.854H6.947v-5.854Zm6.948 0h1.158v5.854h-1.158v-5.854Zm-10.421 8.78v1.171c0 .31.122.608.339.828.217.22.511.343.819.343h12.736c.308 0 .602-.123.82-.343.216-.22.338-.517.338-.828v-1.17H3.474Z" fill="#fff"/></svg>