<svg width="32" height="32" viewBox="0 0 32 32" fill="none" xmlns="http://www.w3.org/2000/svg">
<g clip-path="url(#clip0_2_587)">
<path d="M6.18666 18.344C6.2471 18.912 5.70399 19.4356 4.97066 19.5129C4.23822 19.592 3.59555 19.1956 3.5351 18.6285C3.47466 18.0605 4.01866 17.5378 4.7511 17.4605C5.48355 17.3813 6.12622 17.7769 6.18666 18.344ZM8.04177 20.7591C8.15288 21.4862 6.48088 23.0205 5.75199 23.1316C5.57893 23.158 5.40237 23.15 5.23239 23.1081C5.06241 23.0662 4.90235 22.9913 4.76135 22.8875C4.62036 22.7837 4.50119 22.6532 4.41067 22.5034C4.32014 22.3535 4.26003 22.1873 4.23377 22.0142C4.12266 21.2871 4.74933 21.0009 5.47644 20.8898C6.20444 20.7796 7.93066 20.032 8.04177 20.7591ZM9.62666 22.6293C9.78044 23.3493 8.17955 26.12 7.45955 26.2738C6.73866 26.4276 5.99733 26.4036 5.84444 25.6827C5.69066 24.9627 6.11644 24.1822 6.83644 24.0285C7.55644 23.8738 9.47288 21.9093 9.62666 22.6293ZM13.0515 23.392C13.1982 24.1129 11.8622 27.2622 11.1404 27.4089C10.4187 27.5556 9.86133 27.8098 9.71466 27.0889C9.56799 26.3671 9.94666 25.3333 10.6089 24.7956C11.1813 24.3307 12.9058 22.6711 13.0515 23.392Z" fill="#A0041E"/>
<path d="M3.48882 16.7724C4.02838 17.408 4.53771 17.8658 3.90127 18.4035C3.26482 18.9422 2.34838 18.5475 1.80882 17.9111C1.27104 17.2755 -0.181401 14.8711 0.454155 14.3333C1.09149 13.7947 2.95104 16.1369 3.48882 16.7724ZM3.78216 21.1102C4.57504 21.3724 5.43282 21.8222 5.17149 22.6133C4.91015 23.4053 3.99104 23.4942 3.19904 23.2338C2.40882 22.9715 -0.153845 21.7307 0.107488 20.9395C0.36971 20.1484 2.99104 20.8489 3.78216 21.1102ZM4.86127 25.1387C5.66571 24.9138 6.55638 24.8871 6.78038 25.6889C7.00438 26.4915 6.52971 27.0533 5.72615 27.2773C4.92438 27.5004 1.8666 27.9235 1.6426 27.1209C1.41949 26.3164 4.0586 25.3609 4.86127 25.1387ZM8.72616 27.9724C8.80082 27.1395 9.2986 26.4889 10.1279 26.5635C10.9582 26.6391 11.2462 27.4747 11.1706 28.3058C11.095 29.136 11.3013 31.472 9.64616 31.8755C8.83549 32.072 8.64971 28.8 8.72616 27.9724ZM25.8133 18.344C25.7528 18.912 26.2959 19.4355 27.0284 19.5129C27.7608 19.592 28.4035 19.1955 28.4639 18.6284C28.5244 18.0604 27.9804 17.5378 27.2488 17.4604C26.5164 17.3813 25.8737 17.7769 25.8133 18.344ZM23.9582 20.7591C23.847 21.4862 25.5199 23.0204 26.247 23.1315C26.975 23.2427 27.655 22.7422 27.7662 22.0142C27.8773 21.2862 27.2506 21.0009 26.5235 20.8898C25.7955 20.7795 24.0693 20.032 23.9582 20.7591ZM22.3733 22.6293C22.2195 23.3493 23.8204 26.12 24.5404 26.2738C25.2604 26.4275 26.0017 26.4035 26.1546 25.6827C26.3093 24.9627 25.8835 24.1822 25.1635 24.0284C24.4435 23.8738 22.527 21.9093 22.3733 22.6293ZM18.9484 23.392C18.8008 24.1129 20.1377 27.2622 20.8586 27.4089C21.5804 27.5555 22.1368 27.8098 22.2844 27.0889C22.4302 26.3671 22.0515 25.3333 21.3893 24.7955C20.8186 24.3307 19.0942 22.6711 18.9484 23.392Z" fill="#A0041E"/>
<path d="M28.5112 16.7724C27.9716 17.408 27.4623 17.8658 28.0979 18.4036C28.7343 18.9422 29.6508 18.5476 30.1903 17.9111C30.7281 17.2756 32.1805 14.8711 31.5441 14.3333C30.9085 13.7947 29.049 16.1369 28.5112 16.7724ZM28.2179 21.1102C27.425 21.3724 26.5672 21.8222 26.8294 22.6133C27.0899 23.4053 28.0099 23.4942 28.8019 23.2338C29.5921 22.9716 32.1539 21.7307 31.8925 20.9396C31.6312 20.1484 29.009 20.8489 28.2179 21.1102ZM27.1379 25.1387C26.3343 24.9138 25.4436 24.8871 25.2196 25.6889C24.9956 26.4916 25.4703 27.0533 26.273 27.2773C27.0748 27.5004 30.1334 27.9236 30.3565 27.12C30.5805 26.3164 27.9414 25.3609 27.1379 25.1387ZM23.2739 27.9724C23.1992 27.1396 22.7005 26.4889 21.8721 26.5636C21.041 26.6391 20.7539 27.4747 20.8294 28.3058C20.9041 29.136 20.6988 31.472 22.3539 31.8756C23.1645 32.072 23.3503 28.8 23.2739 27.9724ZM2.79831 12.336C2.71753 12.1551 2.67318 11.96 2.66779 11.7619C2.66241 11.5639 2.69608 11.3667 2.7669 11.1816C2.83772 10.9965 2.9443 10.8272 3.08055 10.6834C3.21679 10.5395 3.38004 10.4239 3.56098 10.3431C3.74191 10.2623 3.93698 10.218 4.13505 10.2126C4.33312 10.2072 4.53032 10.2409 4.71537 10.3117C4.90043 10.3825 5.06973 10.4891 5.2136 10.6253C5.35746 10.7616 5.47309 10.9248 5.55387 11.1058C5.89253 11.8658 7.91031 16.0942 7.14942 16.4338C6.38942 16.7733 3.13787 13.096 2.79831 12.336Z" fill="#A0041E"/>
<path d="M3.55016 10.6969C4.63549 13.3244 10.9644 7.7271 11.3751 5.11376C11.7857 2.50132 11.1013 1.37954 10.7582 1.11376C10.4151 0.847986 10.8862 2.38932 9.70305 4.05243C8.76705 5.36976 2.79994 8.88265 3.55016 10.6969ZM29.2017 12.336C29.3483 11.9733 29.3484 11.5679 29.202 11.2051C29.0557 10.8423 28.7742 10.5505 28.417 10.3911C28.0598 10.2316 27.6546 10.217 27.2868 10.3503C26.9191 10.4836 26.6174 10.7545 26.4453 11.1058C26.1066 11.8658 24.0897 16.0942 24.8506 16.4338C25.6106 16.7733 28.8622 13.096 29.2017 12.336Z" fill="#A0041E"/>
<path d="M28.4507 10.6969C27.3645 13.3244 21.0365 7.7271 20.6249 5.11376C20.2151 2.50132 20.8996 1.37954 21.2418 1.11376C21.5849 0.847986 21.1138 2.38932 22.2969 4.05243C23.2338 5.36976 29.2 8.88265 28.4507 10.6969Z" fill="#A0041E"/>
<path d="M5.33335 19.5556C5.33335 17.7778 7.11113 10.6667 16 10.6667C24.8889 10.6667 26.6667 17.7778 26.6667 19.5556C22.2222 22.2222 21.8907 25.7778 16 25.7778C10.1094 25.7778 10.6667 22.2222 5.33335 19.5556ZM3.84268 10.8649C1.04002 11.3476 3.52446 3.62846 5.51646 1.88801C7.50757 0.147569 9.65602 0.184013 10.0631 0.332457C10.4702 0.480902 9.01957 2.63912 8.50757 4.04624C8.24713 4.76001 5.77691 10.5316 3.84268 10.8649ZM28.1574 10.8649C30.9591 11.3476 28.4756 3.62846 26.4845 1.88801C24.4934 0.147569 22.3458 0.184013 21.9378 0.332457C21.5298 0.480902 22.9813 2.63912 23.4934 4.04624C23.7538 4.76001 26.2231 10.5316 28.1574 10.8649Z" fill="#BE1931"/>
<path d="M15.1395 10.7875C15.4373 11.9778 15.0995 12.1991 14.3848 12.3778C13.6701 12.5564 12.8497 12.6249 12.5528 11.4347C12.255 10.2444 12.5928 9.13421 13.3075 8.95554C14.0213 8.77688 14.8417 9.59643 15.1395 10.7875ZM19.447 11.4347C19.1493 12.6258 18.3288 12.5564 17.615 12.3778C16.9004 12.1991 16.5626 11.9778 16.8604 10.7875C17.1581 9.59643 17.9786 8.77688 18.6933 8.95554C19.407 9.13332 19.7448 10.2435 19.447 11.4347Z" fill="#A0041E"/>
<path d="M12.889 9.77778C13.6254 9.77778 14.2223 9.18083 14.2223 8.44445C14.2223 7.70807 13.6254 7.11111 12.889 7.11111C12.1526 7.11111 11.5557 7.70807 11.5557 8.44445C11.5557 9.18083 12.1526 9.77778 12.889 9.77778Z" fill="#292F33"/>
<path d="M19.1112 9.77778C19.8475 9.77778 20.4445 9.18083 20.4445 8.44445C20.4445 7.70807 19.8475 7.11111 19.1112 7.11111C18.3748 7.11111 17.7778 7.70807 17.7778 8.44445C17.7778 9.18083 18.3748 9.77778 19.1112 9.77778Z" fill="#292F33"/>
<path d="M8.04702 19.1369C7.92258 19.3467 5.33325 19.7876 5.99991 18.4871C6.66658 17.1867 8.17147 18.9289 8.04702 19.1369Z" fill="#DD2E44"/>
<path d="M8.79202 17.888C8.59824 18.088 5.95824 18.2355 7.08357 16.64C8.20802 15.0462 9.06935 17.6018 8.79202 17.888Z" fill="#DD2E44"/>
<path d="M10.3617 16.5867C10.0257 16.792 7.27638 16.1413 9.11105 14.8693C10.775 13.7173 10.8053 16.3147 10.3617 16.5867Z" fill="#DD2E44"/>
<path d="M12.5352 15.4907C11.6392 15.7564 9.53253 14.3333 11.7521 13.5875C13.9725 12.8418 13.4312 15.2249 12.5352 15.4907ZM23.8721 19.1369C23.9974 19.3458 26.5859 19.7867 25.9192 18.4871C25.2525 17.1867 23.7476 18.9289 23.8721 19.1369Z" fill="#DD2E44"/>
<path d="M23.1281 17.888C23.3219 18.088 25.9619 18.2355 24.8365 16.64C23.7112 15.0462 22.8499 17.6018 23.1281 17.888Z" fill="#DD2E44"/>
<path d="M21.5582 16.5867C21.8942 16.792 24.6436 16.1413 22.808 14.8693C21.144 13.7173 21.1138 16.3147 21.5582 16.5867Z" fill="#DD2E44"/>
<path d="M19.3848 15.4907C20.2808 15.7564 22.3874 14.3333 20.1679 13.5875C17.9466 12.8418 18.4879 15.2249 19.3848 15.4907Z" fill="#DD2E44"/>
<path d="M23.8657 14.4444C23.8657 14.8124 21.9199 12.4444 15.9999 12.4444C10.079 12.4444 8.13501 14.8124 8.13501 14.4444C8.13501 14.0764 10.583 11.1111 15.9999 11.1111C21.4168 11.1111 23.8657 14.0764 23.8657 14.4444Z" fill="#A0041E"/>
<path d="M9.59375 21.7182C9.59375 21.3502 11.1777 23.7182 16 23.7182C20.8222 23.7182 22.4071 21.3502 22.4071 21.7182C22.4071 22.0862 20.4124 25.0516 16 25.0516C11.5875 25.0516 9.59375 22.0862 9.59375 21.7182Z" fill="#DD2E44"/>
</g>
<defs>
<clipPath id="clip0_2_587">
<rect width="32" height="32" fill="white"/>
</clipPath>
</defs>
</svg>
