<svg width="32" height="32" viewBox="0 0 32 32" fill="none" xmlns="http://www.w3.org/2000/svg">
<path d="M25.73 18.99L24.71 17.46L20.525 12.3475C20.525 12.3475 16.7575 10.7025 14.205 10.79C12.445 10.85 9.03747 10.235 5.29747 13.315C2.49497 15.6225 1.90747 18.29 1.90747 18.29L4.67997 19.83L2.56747 21.2375C2.56747 21.2375 4.99747 25.6925 11.7225 26.5625C19.695 27.595 22.615 23.44 24.3925 21.1175C24.5775 20.875 25.73 18.99 25.73 18.99Z" fill="url(#paint0_linear_2_565)"/>
<path d="M14.415 6.9075C14.205 7.025 12.7775 8.205 12.11 9.0475C11.52 9.7925 10.895 10.8775 10.895 10.8775C10.895 10.8775 14.0625 10.7775 16.3625 11.5525C18.6625 12.3275 21.2575 14.0225 23.26 16.385C24.7975 18.1975 25.2025 18.92 25.22 19.2525C25.2375 19.5875 23.9525 21.205 22.5575 22.6025C21.665 23.495 20.785 24.34 18.4625 25.675C17.37 26.3025 16.51 26.52 16.51 26.52C16.51 26.52 19.05 26.9625 20.2925 26.9775C21.6775 26.995 22.4875 26.895 22.58 26.5675C22.675 26.24 21.125 25.065 21.125 25.065C21.125 25.065 22.78 23.7275 23.9525 22.35C24.4175 21.8025 25.63 20.255 25.63 20.255C25.63 20.255 26.925 21.6025 27.665 22.225C28.44 22.875 30.27 24.2675 30.5575 24.15C30.8875 24.015 30.1825 21.92 29.7125 21.0775C29.2425 20.2325 28.0225 19.0825 28.0225 19.0825C28.0225 19.0825 29.565 17.8975 30.1275 16.56C30.69 15.2225 31.12 13.475 30.7675 13.31C30.415 13.145 28.0975 15.5275 27.63 15.9975C27.16 16.4675 25.875 18.02 25.875 18.02C25.875 18.02 24.785 16.875 24.5275 16.57C24.27 16.265 23.4475 15.2325 23.4475 15.2325C23.4475 15.2325 21.69 11.6575 18.5425 9.155C16.3625 7.4225 14.415 6.9075 14.415 6.9075Z" fill="#1B65A6"/>
<path d="M12.2326 19.4475C12.2326 19.87 12.0401 21.2825 13.2876 22.21C14.7401 23.2875 16.9251 23.47 17.7451 23.425C19.0051 23.355 19.5526 23.025 19.5526 23.025C19.5526 23.025 18.2626 21.405 15.9851 20.3025C13.7076 19.2 12.2326 19.4475 12.2326 19.4475ZM1.3226 18.1975C1.1076 18.6125 1.3926 18.8025 2.0976 19.13C2.8026 19.4575 3.8801 19.8575 3.8801 19.8575C3.8801 19.8575 3.2001 20.14 2.8476 20.3725C2.4951 20.6075 1.8601 20.845 2.0276 21.265C2.1501 21.575 2.4501 21.5475 3.0126 21.2425C3.5751 20.9375 4.8201 20.1625 4.8426 19.8575C4.8651 19.5525 4.0401 19.0475 3.4001 18.7075C2.6251 18.2975 1.5676 17.7225 1.3226 18.1975Z" fill="#1B65A6"/>
<path d="M8.9 17.2525C8.9 17.7375 8.5925 18.15 7.985 18.19C7.28 18.2375 7 17.725 7 17.24C7 16.755 7.4575 16.3725 7.9025 16.33C8.485 16.28 8.9 16.7675 8.9 17.2525Z" fill="#262D33"/>
<path d="M11.575 17.7225C11.3375 17.755 11.2475 18.05 11.27 18.52C11.2925 18.99 11.41 19.365 11.34 19.6225C11.27 19.88 10.285 21.2425 10.0975 21.5C9.90996 21.7575 9.67496 22.1325 9.93246 22.345C10.19 22.5575 10.52 22.275 10.7075 22.0875C10.895 21.9 12.1625 20.235 12.21 19.8575C12.2575 19.4825 12.0925 18.5675 12.07 18.38C12.045 18.1925 11.9275 17.675 11.575 17.7225ZM12.795 17.7225C12.7725 18.1225 13.24 18.145 13.78 18.145C14.2725 18.145 17.125 18.275 18.6725 18.355C20.3275 18.4425 22.5675 18.8425 23.5575 19.0125C24.145 19.1125 24.7075 19.2475 24.7075 18.8475C24.7075 18.4675 24.0925 18.4075 23.4875 18.285C22.9775 18.18 21.3475 17.74 18.69 17.575C16.6975 17.4525 14.015 17.37 13.71 17.3925C13.405 17.4175 12.8175 17.3425 12.795 17.7225Z" fill="#E0ECF3"/>
<defs>
<linearGradient id="paint0_linear_2_565" x1="13.8182" y1="10.7765" x2="13.8182" y2="26.725" gradientUnits="userSpaceOnUse">
<stop offset="0.079" stop-color="#1483BC"/>
<stop offset="0.189" stop-color="#1F8CC2"/>
<stop offset="0.381" stop-color="#3CA4D3"/>
<stop offset="0.585" stop-color="#62C2E8"/>
<stop offset="0.962" stop-color="#99D6EF"/>
</linearGradient>
</defs>
</svg>
