<svg width="32" height="32" viewBox="0 0 32 32" fill="none" xmlns="http://www.w3.org/2000/svg">
<path d="M13.1973 19.9129H13.1404C11.2587 19.8516 8.76799 19.0187 7.58843 15.4C7.53049 15.2229 7.54499 15.0301 7.62877 14.8637C7.71255 14.6973 7.8588 14.5709 8.03554 14.512C8.12256 14.483 8.21445 14.4714 8.30594 14.478C8.39743 14.4846 8.48672 14.5092 8.56866 14.5504C8.65061 14.5916 8.7236 14.6487 8.78343 14.7182C8.84327 14.7877 8.88877 14.8684 8.91732 14.9556L8.91999 14.9653C9.19732 15.8178 10.0427 18.4107 13.1867 18.5129C13.3681 18.5178 13.5406 18.593 13.6677 18.7227C13.7948 18.8523 13.8667 19.0262 13.868 19.2077C13.8694 19.3893 13.8003 19.5643 13.6751 19.6958C13.55 19.8274 13.3787 19.9052 13.1973 19.9129ZM8.44354 24.9236C8.5118 24.8235 8.60486 24.7429 8.71362 24.6896C8.82237 24.6363 8.9431 24.6122 9.06399 24.6196C11.7609 24.7804 13.1333 22.8969 13.5849 22.2782C13.639 22.2039 13.7072 22.1409 13.7856 22.093C13.864 22.045 13.9511 22.013 14.0419 21.9987C14.1327 21.9844 14.2254 21.9882 14.3148 22.0097C14.4041 22.0313 14.4884 22.0703 14.5627 22.1244C14.8755 22.352 14.9307 22.7884 14.7164 23.1022C13.2071 25.1733 11.2773 26.1547 8.98043 26.0178C8.85686 26.0102 8.73751 25.97 8.6345 25.9013C8.53149 25.8326 8.44851 25.7379 8.39397 25.6267C8.33943 25.5156 8.31529 25.3919 8.324 25.2684C8.33271 25.1449 8.37395 25.026 8.44354 24.9236Z" fill="#BE1931"/>
<path d="M12.7663 21.304C13.0713 21.2567 13.3744 21.1974 13.6747 21.1262L13.8338 21.0907C13.9237 21.0712 14.0089 21.0342 14.0845 20.9817C14.1601 20.9293 14.2246 20.8626 14.2743 20.7852C14.3241 20.7079 14.3582 20.6215 14.3746 20.531C14.3909 20.4405 14.3893 20.3476 14.3698 20.2578C14.3504 20.1679 14.3133 20.0827 14.2609 20.0071C14.2085 19.9316 14.1418 19.867 14.0644 19.8173C13.9871 19.7675 13.9007 19.7334 13.8102 19.7171C13.7197 19.7007 13.6268 19.7023 13.537 19.7218L13.3654 19.76C12.3992 19.9778 10.1343 20.4924 7.62052 18.7387C7.46817 18.6425 7.28461 18.6087 7.108 18.6443C6.93139 18.68 6.77531 18.7823 6.6722 18.9301C6.56909 19.0778 6.52687 19.2596 6.55433 19.4377C6.58178 19.6157 6.6768 19.7764 6.81963 19.8862C9.18852 21.5395 11.4107 21.5093 12.7663 21.304Z" fill="#BE1931"/>
<path d="M13.6917 22.4871C14.0086 22.3107 14.3207 22.1257 14.6277 21.9324C14.786 21.8352 14.8992 21.6791 14.9424 21.4983C14.9856 21.3176 14.9552 21.1272 14.8579 20.9689C14.7607 20.8106 14.6045 20.6974 14.4238 20.6542C14.2431 20.611 14.0527 20.6414 13.8944 20.7387L13.745 20.832C12.9059 21.3573 10.9397 22.5929 7.98593 21.7716C7.80859 21.7267 7.62075 21.753 7.46255 21.8449C7.30435 21.9367 7.18836 22.0868 7.13936 22.263C7.09037 22.4393 7.11226 22.6277 7.20036 22.788C7.28846 22.9483 7.43578 23.0678 7.61082 23.1209C10.3939 23.8942 12.481 23.1289 13.6917 22.4871Z" fill="#BE1931"/>
<path d="M19.4072 19.9129H19.464C21.3458 19.8516 23.8365 19.0187 25.016 15.4C25.074 15.2229 25.0595 15.0301 24.9757 14.8637C24.8919 14.6973 24.7457 14.5709 24.5689 14.512C24.4819 14.483 24.39 14.4714 24.2985 14.478C24.2071 14.4846 24.1178 14.5092 24.0358 14.5504C23.9539 14.5916 23.8809 14.6487 23.821 14.7182C23.7612 14.7877 23.7157 14.8684 23.6872 14.9556L23.6845 14.9653C23.4072 15.8178 22.5618 18.4107 19.4178 18.5129C19.2363 18.5178 19.0639 18.593 18.9368 18.7227C18.8096 18.8523 18.7378 19.0262 18.7364 19.2077C18.7351 19.3893 18.8042 19.5643 18.9293 19.6958C19.0545 19.8274 19.2258 19.9052 19.4072 19.9129ZM24.1609 24.9236C24.0927 24.8235 23.9996 24.7429 23.8909 24.6896C23.7821 24.6363 23.6614 24.6122 23.5405 24.6196C20.8436 24.7804 19.4712 22.8969 19.0196 22.2782C18.9655 22.2039 18.8973 22.1409 18.8189 22.093C18.7405 22.045 18.6534 22.013 18.5626 21.9987C18.4718 21.9844 18.379 21.9882 18.2897 22.0097C18.2003 22.0313 18.1161 22.0703 18.0418 22.1244C17.7289 22.352 17.6738 22.7884 17.888 23.1022C19.3974 25.1733 21.3272 26.1547 23.624 26.0178C23.7476 26.0102 23.867 25.97 23.97 25.9013C24.073 25.8326 24.156 25.7379 24.2105 25.6267C24.265 25.5156 24.2892 25.3919 24.2805 25.2684C24.2718 25.1449 24.2305 25.026 24.1609 24.9236Z" fill="#BE1931"/>
<path d="M19.8382 21.304C19.5332 21.2567 19.2301 21.1974 18.9298 21.1262L18.7707 21.0907C18.6808 21.0712 18.5956 21.0342 18.52 20.9817C18.4445 20.9293 18.3799 20.8626 18.3302 20.7852C18.2804 20.7079 18.2463 20.6215 18.23 20.531C18.2136 20.4405 18.2152 20.3476 18.2347 20.2578C18.2542 20.1679 18.2912 20.0827 18.3436 20.0071C18.396 19.9316 18.4628 19.867 18.5401 19.8173C18.6174 19.7675 18.7038 19.7334 18.7943 19.7171C18.8848 19.7007 18.9777 19.7023 19.0676 19.7218L19.2391 19.76C20.2053 19.9778 22.4702 20.4924 24.984 18.7387C25.1363 18.6425 25.3199 18.6087 25.4965 18.6443C25.6731 18.68 25.8292 18.7823 25.9323 18.9301C26.0354 19.0778 26.0776 19.2596 26.0502 19.4377C26.0227 19.6157 25.9277 19.7764 25.7849 19.8862C23.4169 21.5395 21.1938 21.5093 19.8382 21.304Z" fill="#BE1931"/>
<path d="M18.9129 22.4871C18.596 22.3107 18.2839 22.1257 17.9769 21.9324C17.8186 21.8352 17.7054 21.6791 17.6622 21.4983C17.6191 21.3176 17.6494 21.1272 17.7467 20.9689C17.8439 20.8106 18.0001 20.6974 18.1808 20.6542C18.3615 20.611 18.5519 20.6414 18.7102 20.7387L18.8596 20.832C19.6987 21.3573 21.6649 22.5929 24.6187 21.7716C24.796 21.7267 24.9839 21.753 25.1421 21.8449C25.3003 21.9367 25.4163 22.0868 25.4653 22.263C25.5143 22.4393 25.4924 22.6277 25.4043 22.788C25.3162 22.9483 25.1688 23.0678 24.9938 23.1209C22.2107 23.8942 20.1236 23.1289 18.9129 22.4871Z" fill="#BE1931"/>
<path d="M7.98486 6.15288C8.65331 5.46044 10.0435 3.96533 9.3982 2.63821C10.2418 2.70666 15.4044 8.11288 9.34486 10.7031C8.39197 10.5813 7.98486 6.15288 7.98486 6.15288ZM15.7822 26.9475C15.1369 27.24 12.0044 28.8773 11.912 31.8009C11.9733 32.5022 14.3386 30.6898 16.3653 30.6898V27.6195L15.7822 26.9475Z" fill="#BE1931"/>
<path d="M16.9199 26.9475C17.5652 27.24 20.6977 28.8773 20.7901 31.8009C20.7288 32.5022 18.3635 30.6898 16.3368 30.6898V27.6195L16.9199 26.9475ZM6.78656 10.6782C6.90479 11.9484 9.43101 13.2462 11.2515 13.5467C11.4843 13.04 10.0479 11.5582 9.2719 10.6613C8.83812 10.16 8.64879 8.96887 7.32967 9.4871C6.01056 10.0053 6.78656 10.6782 6.78656 10.6782Z" fill="#BE1931"/>
<path d="M10.4375 12.2604C9.85523 12.2604 9.69968 13.8196 12.6499 14.5218C15.6001 15.224 14.0366 13.7413 13.5815 13.04C12.9983 12.1431 10.4375 12.2604 10.4375 12.2604Z" fill="#BE1931"/>
<path d="M13.7466 22.5618C13.5804 23.4391 13.68 28.088 16.3786 28.4391V22.2115L13.7466 22.5618Z" fill="#89021F"/>
<path d="M24.5592 6.15288C23.8907 5.46044 22.5005 3.96533 23.1459 2.63821C22.3023 2.70666 17.1396 8.11288 23.1992 10.7031C24.1521 10.5813 24.5592 6.15288 24.5592 6.15288Z" fill="#BE1931"/>
<path d="M25.7565 10.6782C25.6382 11.9484 23.112 13.2462 21.2916 13.5467C21.0587 13.04 22.4951 11.5582 23.2711 10.6613C23.7049 10.16 23.8942 8.96887 25.2134 9.4871C26.5325 10.0053 25.7565 10.6782 25.7565 10.6782Z" fill="#BE1931"/>
<path d="M22.1066 12.2604C22.6888 12.2604 22.8444 13.8196 19.8941 14.5218C16.9439 15.224 18.5075 13.7413 18.9626 13.04C19.5448 12.1431 22.1066 12.2604 22.1066 12.2604Z" fill="#BE1931"/>
<path d="M25.2366 0.037323C27.577 0.632879 29.3921 4.56355 28.9468 7.01243C28.2517 10.8364 26.2872 12.1564 24.1219 12.4915C23.457 12.44 21.1948 9.40355 23.6099 6.91643C26.025 4.42932 25.8366 1.7111 25.2366 0.037323Z" fill="#DD2E44"/>
<path d="M15.5921 11.1111C15.4803 11.111 15.3726 11.0688 15.2906 10.9928C15.2086 10.9169 15.1582 10.8128 15.1494 10.7013C14.7068 5.0569 12.8072 1.75557 9.8001 1.40446C9.68305 1.39067 9.57628 1.33094 9.50326 1.23843C9.43025 1.14591 9.39698 1.02817 9.41077 0.911126C9.42456 0.794077 9.48428 0.6873 9.5768 0.614286C9.66932 0.541272 9.78705 0.508001 9.9041 0.521792C11.9165 0.756459 15.3885 2.38224 16.0357 10.632C16.0447 10.7495 16.0069 10.8658 15.9304 10.9554C15.854 11.045 15.7451 11.1007 15.6277 11.1102L15.5921 11.1111ZM16.8525 11.1111L16.817 11.1102C16.7588 11.1056 16.7021 11.0896 16.6501 11.0631C16.5981 11.0366 16.5518 11 16.5139 10.9556C16.476 10.9112 16.4473 10.8598 16.4293 10.8043C16.4113 10.7487 16.4044 10.6902 16.409 10.632C17.0561 2.38224 20.529 0.756459 22.5414 0.521792C22.6585 0.508119 22.7762 0.541503 22.8686 0.614601C22.961 0.687698 23.0207 0.794521 23.0343 0.91157C23.048 1.02862 23.0146 1.14631 22.9415 1.23874C22.8684 1.33117 22.7616 1.39079 22.6445 1.40446C19.6374 1.75557 17.7379 5.0569 17.2952 10.7013C17.2865 10.8128 17.2361 10.9169 17.154 10.9928C17.072 11.0688 16.9643 11.111 16.8525 11.1111Z" fill="#BE1931"/>
<path d="M16.3387 20.48C16.3387 21.3689 16.3556 23.4365 16.3556 24.8142C15.8436 24.8142 15.0303 24.8 14.1885 24.5476C12.8579 24.1476 13.1992 21.08 13.6427 20.3689L16.3387 20.48Z" fill="#A0041E"/>
<path d="M16.2977 17.1013C16.2977 18.0907 16.3173 20.392 16.3173 21.9262C15.735 21.9262 14.8097 21.9111 13.8524 21.6293C12.3386 21.184 12.727 17.7698 13.231 16.9778L16.2977 17.1013Z" fill="#BE1931"/>
<path d="M16.2977 10.4276C16.2977 12.3556 16.5457 18.2693 16.5457 18.8693C15.3039 18.8693 11.8337 19.1689 12.0284 16.0836C12.2222 12.9991 14.1244 10.4276 16.2977 10.4276Z" fill="#DD2E44"/>
<path d="M18.8017 22.5618C18.9679 23.4391 18.8683 28.088 16.1697 28.4391V22.2115L18.8017 22.5618Z" fill="#89021F"/>
<path d="M16.2088 20.48C16.2088 21.3689 16.0737 23.4365 16.0737 24.8142C16.5857 24.8142 17.5173 24.8 18.3582 24.5476C19.6888 24.1476 19.3475 21.08 18.904 20.3689L16.2088 20.48Z" fill="#A0041E"/>
<path d="M16.2507 17.1013C16.2507 18.0907 16.104 20.392 16.104 21.9262C16.6862 21.9262 17.7396 21.9111 18.696 21.6293C20.2098 21.184 19.8213 17.7698 19.3173 16.9778L16.2507 17.1013Z" fill="#BE1931"/>
<path d="M16.2506 10.4275C16.2506 12.3555 16.0639 18.2693 16.0639 18.8693C17.3057 18.8693 20.7137 19.1689 20.5199 16.0835C20.3261 12.9982 18.4239 10.4275 16.2506 10.4275ZM7.30659 0.037323C4.96615 0.632879 3.15104 4.56355 3.59637 7.01243C4.29148 10.8364 6.25593 12.1564 8.42126 12.4915C9.08615 12.44 11.3484 9.40355 8.93326 6.91643C6.51815 4.42932 6.70748 1.7111 7.30659 0.037323Z" fill="#DD2E44"/>
<path d="M14.9588 12.7575C15.4494 12.6704 15.7473 12.0375 15.6242 11.3439C15.501 10.6503 15.0035 10.1586 14.5128 10.2457C14.0222 10.3328 13.7243 10.9657 13.8475 11.6593C13.9707 12.3529 14.4682 12.8446 14.9588 12.7575Z" fill="#BE1931"/>
<path d="M18.555 11.6207C18.678 10.9271 18.3801 10.2942 17.8894 10.2072C17.3988 10.1201 16.9013 10.6119 16.7783 11.3055C16.6552 11.9991 16.9531 12.632 17.4438 12.719C17.9344 12.8061 18.4319 12.3144 18.555 11.6207Z" fill="#BE1931"/>
<path d="M14.8477 12.1284C15.3383 12.0413 15.6362 11.4083 15.5131 10.7147C15.3899 10.0211 14.8924 9.52943 14.4018 9.61654C13.9111 9.70365 13.6133 10.3366 13.7364 11.0302C13.8596 11.7238 14.3571 12.2155 14.8477 12.1284Z" fill="#292F33"/>
<path d="M18.6572 11.0305C18.7803 10.3369 18.4824 9.70401 17.9917 9.61696C17.5011 9.52991 17.0036 10.0216 16.8805 10.7153C16.7575 11.4089 17.0554 12.0418 17.5461 12.1288C18.0367 12.2159 18.5342 11.7241 18.6572 11.0305Z" fill="#292F33"/>
<path d="M12.7778 16.8053C13.0276 17.5555 13.5281 18.3609 16.1947 18.3609C18.0561 18.3609 19.8889 18.0275 19.8338 16.6667C19.1396 17.2498 18.2783 17.5004 16.1947 17.5004C13.9725 17.5004 12.7778 16.8053 12.7778 16.8053Z" fill="#EA596E"/>
<path d="M13.5752 20.376C13.769 20.9049 14.1556 21.4729 16.2196 21.4729C17.6596 21.4729 19.0792 21.2382 19.0356 20.2782C18.4979 20.6898 17.8321 20.8658 16.2196 20.8658C14.4996 20.8649 13.5752 20.376 13.5752 20.376Z" fill="#DD2E44"/>
<path d="M13.6675 23.1902C13.8497 23.7191 14.2141 24.2871 16.159 24.2871C17.5164 24.2871 18.8533 24.0524 18.8133 23.0924C18.3066 23.504 17.679 23.68 16.159 23.68C14.5386 23.68 13.6675 23.1902 13.6675 23.1902Z" fill="#BE1931"/>
<path d="M7.83281 11.3609C7.73573 11.3611 7.63981 11.3399 7.55192 11.2987C5.75103 10.4595 4.7457 8.96976 4.56436 6.87199C4.53236 6.50576 4.79992 6.15021 5.16614 6.11821C5.53325 6.08621 5.85325 6.32354 5.88614 6.68976L5.89147 6.75732C5.94836 7.41243 6.09858 9.1511 8.11458 10.0907C8.25174 10.155 8.36289 10.2641 8.42973 10.4001C8.49657 10.536 8.51511 10.6907 8.4823 10.8386C8.44949 10.9865 8.36729 11.1188 8.24923 11.2137C8.13117 11.3087 7.9843 11.3606 7.83281 11.3609ZM24.6666 11.3609C24.5147 11.361 24.3674 11.3093 24.249 11.2143C24.1305 11.1193 24.048 10.9867 24.0152 10.8385C23.9823 10.6903 24.001 10.5352 24.0683 10.3991C24.1355 10.2629 24.2471 10.1538 24.3848 10.0898C26.4008 9.15021 26.551 7.41154 26.607 6.75643L27.2773 6.74932L27.9359 6.8711C27.7537 8.96887 26.7484 10.4587 24.9475 11.2978C24.8598 11.3397 24.7638 11.3612 24.6666 11.3609Z" fill="#EA596E"/>
</svg>
