<svg width="32" height="32" viewBox="0 0 32 32" fill="none" xmlns="http://www.w3.org/2000/svg">
<path d="M12.0449 17.1125L1.67491 17.4875C1.67491 17.4875 1.01741 16.83 1.11241 16.595C1.20741 16.36 9.79491 9.65001 10.1224 9.69751C10.4499 9.74501 11.2024 10.5425 11.8124 10.26C12.4224 9.97751 11.8124 8.33501 11.9999 8.10251C12.1874 7.86751 18.8974 4.25501 19.3199 4.06751C19.7424 3.88001 20.1174 3.45751 20.9624 3.64501C21.8074 3.83251 23.9199 4.20751 26.2174 5.75751C28.5149 7.30751 30.9099 9.09001 30.7224 10.075C30.5349 11.06 12.0449 17.1125 12.0449 17.1125Z" fill="#FFE265"/>
<path d="M4.86511 28.8925C7.16511 28.61 28.6101 24.0125 29.5026 23.8725C30.3951 23.7325 30.9576 22.8875 30.9576 21.9475C30.9576 21.0075 30.7226 10.075 30.7226 10.075C30.7226 10.075 29.6901 10.4025 28.4701 10.685C27.2501 10.965 17.2526 13.405 13.3126 14.2975C9.37261 15.19 3.08261 16.8325 2.37761 16.8325C1.67261 16.8325 1.11011 16.5975 1.11011 16.5975C1.11011 16.5975 1.29761 26.3575 1.34511 27.0625C1.39261 27.7675 1.72011 28.61 2.51761 28.845C3.31511 29.08 3.83511 29.0175 4.86511 28.8925Z" fill="#FEB502"/>
<path d="M18.7424 6.38999C18.7424 6.98999 19.3524 7.38749 20.3624 7.35749C21.4649 7.32499 21.7699 6.66999 21.7349 6.24999C21.6999 5.82749 21.1924 5.45749 20.1874 5.47499C19.2549 5.49249 18.7424 5.86249 18.7424 6.38999Z" fill="#FF8B0D"/>
<path d="M7.48001 13.87C5.85501 14.4175 6.03751 15.84 6.51251 16.1575C6.98751 16.475 7.62001 16.4575 8.36001 16.1925C9.10001 15.9275 9.57001 15.625 9.64501 15.13C9.71501 14.66 9.10001 13.3225 7.48001 13.87ZM22.245 9.805C21.155 9.855 19.95 10.6375 19.5 11.39C19.025 12.1825 18.99 13.115 20.08 13.695C21.17 14.275 25.025 12.7975 24.8325 11.4425C24.64 10.085 23.39 9.7525 22.245 9.805ZM18.4625 20.7675C18.4625 20.7675 20.01 19.6225 20.01 18.815C20.01 18.005 19.3425 16.0925 16.5075 15.9475C13.85 15.81 12.2125 19.4325 13.955 21.2975C15.6975 23.1625 16.7525 22.3175 17.405 22.1425C18.0575 21.965 18.4625 20.7675 18.4625 20.7675ZM10.8075 24.0225C10.8075 24.0225 12.345 23.06 11.165 22.005C10.335 21.2625 9.22501 21.5975 8.66001 22.175C7.93751 22.915 8.13251 24.0925 8.80001 24.62C9.47001 25.15 10.8075 24.0225 10.8075 24.0225ZM5.59751 19.695C5.59751 19.695 5.42251 19.1425 4.79501 18.92C4.09001 18.67 3.03751 19.5475 3.48751 20.485C3.89251 21.33 4.79001 21.0825 4.79001 21.0825L5.59751 19.695ZM28.105 20.5025C28.2575 20.3375 29.255 19.6175 29.255 19.07C29.255 18.525 27.7525 16.84 25.835 18.1075C23.9175 19.375 24.92 21.2925 25.4475 21.61C25.975 21.9275 27.4375 21.225 28.105 20.5025Z" fill="#ED6B31"/>
<path d="M7.71497 14.7325C6.64747 15.1025 6.24497 15.8575 6.51247 16.1575C6.79497 16.475 7.40997 16.685 8.48247 16.2975C9.31247 15.9975 9.73247 15.495 9.66247 15.0475C9.61247 14.7225 8.68247 14.3975 7.71497 14.7325ZM4.15497 19.6575C3.68747 20.2425 4.06747 20.9075 4.50747 21.065C4.94747 21.2225 5.72247 20.7475 5.66997 19.9575C5.61497 19.165 4.57747 19.13 4.15497 19.6575ZM9.59247 22.845C8.58747 23.66 8.55997 24.4575 8.94747 24.7275C9.21747 24.9175 10.2125 25.3125 11.1225 24.64C11.7975 24.1425 11.81 23.0975 11.5975 22.5975C11.42 22.1725 10.4375 22.1575 9.59247 22.845ZM15.6925 18.4025C14.3475 19.71 14.0275 21.8325 15.3475 22.3325C16.51 22.7725 18.18 22.5075 19.165 21.295C20.2 20.02 20.31 18.6125 19.645 17.7825C18.85 16.785 16.7325 17.395 15.6925 18.4025ZM21.805 11.1075C20.045 11.705 19.0075 12.9725 19.905 13.6075C20.8025 14.24 21.735 14.1475 22.755 13.8C23.9125 13.4075 24.7975 12.4975 24.8325 11.635C24.86 10.9275 23.355 10.58 21.805 11.1075ZM26.505 19.2C25.3075 20.175 24.9575 21.1525 25.45 21.61C25.9425 22.0675 27.1225 22.2775 28.2125 21.5225C29.345 20.7375 29.4275 19.8475 29.3025 19.13C29.1625 18.3225 27.735 18.1975 26.505 19.2Z" fill="#FF8B0D"/>
</svg>
