<svg width="32" height="32" viewBox="0 0 32 32" fill="none" xmlns="http://www.w3.org/2000/svg">
<path d="M26.7999 14.9C25.5499 5.9 19.8499 1 15.9999 1C12.1499 1 6.44992 5.9 5.19992 14.9C3.99992 23.9 7.94992 31 15.9999 31C24.0499 31 27.9999 23.9 26.7999 14.9Z" fill="#FFC294"/>
<path opacity="0.33" d="M26.8 14.9C25.8 7.79999 22.05 3.24999 18.6 1.64999C20.95 3.99999 23.05 7.69999 23.7 12.7C24.9501 21.7 21 28.8 12.9 28.8C11.15 28.8 9.60005 28.45 8.30005 27.85C10.15 29.85 12.75 31 16 31C24.05 31 28 23.9 26.8 14.9Z" fill="#D3976E"/>
</svg>
